<?xml version="1.0" encoding="UTF-8"?>
<svg version="1.1" xmlns="http://www.w3.org/2000/svg" width="514" height="360">
<path d="M0 0 C0.66 0.33 1.32 0.66 2 1 C-15.37159376 21.71458088 -15.37159376 21.71458088 -23.13671875 27.2265625 C-26.88117794 30.85352843 -27.43420196 33.83103764 -28.4375 38.8125 C-34.04494521 62.68943745 -46.66711146 82.39632171 -67.703125 95.5703125 C-84.627228 105.53919604 -103.94059918 110.18782702 -123.48046875 110.1328125 C-124.64344231 110.13424759 -124.64344231 110.13424759 -125.82991028 110.13571167 C-127.45928021 110.13638698 -129.08865294 110.13457841 -130.71801758 110.13037109 C-133.16428944 110.12505048 -135.61037463 110.13031942 -138.05664062 110.13671875 C-144.94450518 110.13929589 -151.76974123 110.08370508 -158.63671875 109.48828125 C-165.00843151 108.96844347 -171.33514219 108.93893284 -177.7265625 108.97265625 C-178.77123184 108.97815491 -179.81590118 108.98365356 -180.89222717 108.98931885 C-185.24806332 109.01710384 -189.60376656 109.05225626 -193.95947266 109.09594727 C-197.17350821 109.12605366 -200.38743153 109.14387008 -203.6015625 109.16015625 C-204.58694 109.17361588 -205.5723175 109.1870755 -206.58755493 109.20094299 C-207.50306122 109.20432175 -208.4185675 109.2077005 -209.36181641 109.21118164 C-210.16342194 109.21863907 -210.96502747 109.2260965 -211.79092407 109.23377991 C-214.25019225 108.9735229 -215.87156464 108.2281889 -218 107 C-217.67 105.68 -217.34 104.36 -217 103 C-215.64455078 102.83564453 -215.64455078 102.83564453 -214.26171875 102.66796875 C-213.08222656 102.50941406 -211.90273437 102.35085938 -210.6875 102.1875 C-209.51574219 102.03667969 -208.34398437 101.88585937 -207.13671875 101.73046875 C-203.82539706 100.95933904 -203.06159044 100.55000627 -201 98 C-198.51056145 91.49674925 -198.57746485 84.17938869 -198.375 77.3125 C-198.33705322 76.20922363 -198.29910645 75.10594727 -198.26000977 73.96923828 C-197.840551 60.31637868 -197.90743165 46.65739165 -198 33 C-241.14982751 19.88583674 -289.34008723 19.03534487 -333.2355957 28.64160156 C-338.80248803 29.8533929 -344.32272474 30.53518515 -350 31 C-319.156414 6.91735544 -271.70158363 3.11150358 -234.30859375 7.3203125 C-210.631475 10.24041827 -187.57477392 16.55072244 -164.60546875 22.82421875 C-138.56339167 30.09190205 -138.56339167 30.09190205 -112 35 C-111.29963623 35.09804932 -110.59927246 35.19609863 -109.87768555 35.29711914 C-71.69203499 40.15430993 -37.20503531 29.09337111 -7 6 C-4.59967436 4.05577488 -2.29113996 2.07293615 0 0 Z M-166 40 C-167.16208613 48.38653235 -166.99163382 56.6175788 -166.6875 65.0625 C-166.65205078 66.37283203 -166.61660156 67.68316406 -166.58007812 69.03320312 C-166.53545826 81.11230396 -166.53545826 81.11230396 -161.8125 91.8125 C-148.22375019 101.13049987 -126.76390575 99.6224002 -111.375 96.8125 C-98.77337927 94.00783159 -87.88877886 89.36282509 -78 81 C-77.30102088 79.68331841 -76.62488285 78.35341924 -76 77 C-75.01 76.67 -74.02 76.34 -73 76 C-68.13290122 69.24704159 -63.82797076 61.17210459 -62 53 C-62.32795681 50.76298135 -62.32795681 50.76298135 -63 49 C-63.98613281 49.28875 -64.97226562 49.5775 -65.98828125 49.875 C-99.77012501 58.97415945 -133.39093092 49.07615216 -166 40 Z " fill="#EACB98" transform="translate(386,161)"/>
<path d="M0 0 C1.11383057 0.09015381 2.22766113 0.18030762 3.37524414 0.27319336 C30.25231251 2.65133655 55.01142538 10.27373643 73.0703125 31.5078125 C81.63377235 42.93661253 88.52095733 56.96111417 90.125 71.25 C92.8127381 69.35450405 95.50014602 67.45854049 98.1875 65.5625 C98.93966797 65.03205078 99.69183594 64.50160156 100.46679688 63.95507812 C101.96674737 62.8966715 103.46593839 61.83718774 104.96435547 60.77661133 C106.35629093 59.79313422 107.75095056 58.81349576 109.14892578 57.83862305 C111.9870501 55.84672846 114.4413152 53.92649582 116.875 51.4375 C119.125 49.25 119.125 49.25 122.125 49.25 C120.73587093 51.0053265 119.33838227 52.75403907 117.9375 54.5 C117.16019531 55.47453125 116.38289062 56.4490625 115.58203125 57.453125 C113.26175487 60.09432991 110.91484319 62.1286051 108.125 64.25 C105.93704393 66.38037828 103.78864962 68.53501836 101.7109375 70.7734375 C93.15891599 79.74674086 83.18421365 86.73778188 72.125 92.25 C71.42890625 92.62769531 70.7328125 93.00539063 70.015625 93.39453125 C64.93386218 96.1081926 59.71277677 97.87198459 54.125 99.25 C53.4350293 99.42136475 52.74505859 99.59272949 52.03417969 99.76928711 C45.04453518 101.35148846 38.27423434 101.59704964 31.125 101.5625 C29.34041382 101.55621582 29.34041382 101.55621582 27.51977539 101.54980469 C17.77079794 101.42584069 8.62726131 100.3283424 -0.875 98.25 C-2.32785371 97.95568885 -3.78098416 97.66274084 -5.234375 97.37109375 C-14.19293148 95.52256536 -22.95936886 93.14536967 -31.74145508 90.59790039 C-48.3842982 85.77056054 -65.12940743 81.66774998 -82.0625 78 C-82.85736816 77.82728577 -83.65223633 77.65457153 -84.47119141 77.47662354 C-93.57335159 75.50535167 -102.66500756 73.6584415 -111.875 72.25 C-111.875 71.59 -111.875 70.93 -111.875 70.25 C-101.14297243 68.1118978 -90.80522691 67.177818 -79.875 67.25 C-79.99500895 62.11276782 -80.11932856 56.97566269 -80.24731445 51.83862305 C-80.29011049 50.09809055 -80.33181261 48.35753075 -80.37231445 46.61694336 C-80.50751445 40.82671152 -80.67217984 35.0382678 -80.875 29.25 C-80.91188934 28.14099335 -80.91188934 28.14099335 -80.94952393 27.00958252 C-81.02426061 24.96536241 -81.12286228 22.92205641 -81.22265625 20.87890625 C-81.30205444 19.16489624 -81.30205444 19.16489624 -81.38305664 17.41625977 C-81.93838393 13.84204657 -83.00939065 11.33824623 -84.875 8.25 C-90.23057265 5.36623011 -96.9007713 5.6173474 -102.875 5.25 C-103.4375 3.3125 -103.4375 3.3125 -103.875 1.25 C-102.13803607 -0.48696393 -99.75755914 0.0801008 -97.39086914 0.04467773 C-95.62490135 0.0147599 -95.62490135 0.0147599 -93.82325745 -0.01576233 C-92.53193405 -0.03247482 -91.24061066 -0.04918732 -89.91015625 -0.06640625 C-88.56139055 -0.08702555 -87.21263058 -0.10802313 -85.86387634 -0.12937927 C-83.01304577 -0.17349774 -80.16219331 -0.21434231 -77.3112793 -0.25268555 C-73.74019477 -0.30077159 -70.16923021 -0.35459334 -66.59826279 -0.41064262 C-15.00439137 -1.2173627 -15.00439137 -1.2173627 0 0 Z M-48.875 15.25 C-49.13270274 17.86202407 -49.30975222 20.44249009 -49.4375 23.0625 C-49.4799585 23.90458008 -49.52241699 24.74666016 -49.56616211 25.61425781 C-50.2182794 40.80845955 -49.95576891 56.04556413 -49.875 71.25 C-40.25114513 73.83967615 -30.61570238 76.37425227 -20.95043945 78.80493164 C-19.60973704 79.14299353 -18.26956345 79.4831597 -16.92993164 79.82543945 C-0.04119118 84.1396011 16.50659067 87.42644222 34 87.4375 C35.01191406 87.44974609 36.02382813 87.46199219 37.06640625 87.47460938 C43.95898969 87.48784737 50.39193402 86.71533434 57.125 85.25 C58.56974382 67.55188815 48.54745545 49.82605724 37.48852539 36.74462891 C23.40685802 21.30900354 1.45053924 13.89909937 -18.875 12.25 C-22.75112405 12.09337826 -26.62103976 12.06499291 -30.5 12.0625 C-32.0159375 12.04413086 -32.0159375 12.04413086 -33.5625 12.02539062 C-41.79879195 11.71428824 -41.79879195 11.71428824 -48.875 15.25 Z " fill="#F8DD8B" transform="translate(268.875,88.75)"/>
<path d="M0 0 C0.99 0.495 0.99 0.495 2 1 C-15.37159376 21.71458088 -15.37159376 21.71458088 -23.13671875 27.2265625 C-26.88117794 30.85352843 -27.43420196 33.83103764 -28.4375 38.8125 C-34.04494521 62.68943745 -46.66711146 82.39632171 -67.703125 95.5703125 C-79.40671735 102.46413423 -92.60534251 106.94473509 -106 109 C-106.76828125 109.12890625 -107.5365625 109.2578125 -108.328125 109.390625 C-115.48691433 110.39815831 -122.78915761 110.08550406 -130 110 C-126.34375 106.03125 -126.34375 106.03125 -123.25 105.75 C-122.5075 105.8325 -121.765 105.915 -121 106 C-121.33 104.02 -121.66 102.04 -122 100 C-120.6875 99.5625 -119.375 99.125 -118.0625 98.6875 C-117.23363281 98.41035156 -116.40476562 98.13320313 -115.55078125 97.84765625 C-113.98778367 97.32825276 -112.42305182 96.81398938 -110.85546875 96.30859375 C-108.56136024 95.56375332 -106.28099156 94.78409085 -104 94 C-103.01 93.67515625 -102.02 93.3503125 -101 93.015625 C-84.51534007 87.23014339 -74.33706412 78.1620322 -66.515625 62.6953125 C-64.80057053 58.51376218 -63.83291236 54.42752051 -63 50 C-63.98613281 50.28875 -64.97226562 50.5775 -65.98828125 50.875 C-75.65177329 53.47181779 -84.86652154 54.38604917 -94.875 54.375 C-95.99044189 54.37628906 -97.10588379 54.37757813 -98.25512695 54.37890625 C-105.66433367 54.28241936 -112.73180679 53.42542539 -120 52 C-119.67 51.34 -119.34 50.68 -119 50 C-122.63 49.34 -126.26 48.68 -130 48 C-130 47.34 -130 46.68 -130 46 C-130.556875 46.185625 -131.11375 46.37125 -131.6875 46.5625 C-134.399133 47.07551165 -136.34371039 46.6640724 -139 46 C-137.25 40.25 -137.25 40.25 -135 38 C-134.01 38 -133.02 38 -132 38 C-131.67 37.34 -131.34 36.68 -131 36 C-130.67 36.99 -130.34 37.98 -130 39 C-128.39125 38.7525 -128.39125 38.7525 -126.75 38.5 C-123 38 -123 38 -119 38 C-118.0409375 37.7215625 -118.0409375 37.7215625 -117.0625 37.4375 C-115 37 -115 37 -112.859375 37.46875 C-109.28818401 38.13224996 -105.80321212 38.10748015 -102.1875 38.0625 C-101.49462891 38.05798828 -100.80175781 38.05347656 -100.08789062 38.04882812 C-98.39188932 38.03713156 -96.69593297 38.01919924 -95 38 C-95 37.67 -95 37.34 -95 37 C-94.30140869 36.96036133 -93.60281738 36.92072266 -92.88305664 36.87988281 C-56.8652405 34.73839485 -27.10672381 24.52513107 0 0 Z " fill="#B3924D" transform="translate(386,161)"/>
<path d="M0 0 C2.65971784 0.62053517 2.65971784 0.62053517 5.8125 0.375 C11.90119577 0.57795653 17.1937042 2.71258909 22.5625 5.5 C22.2325 7.48 21.9025 9.46 21.5625 11.5 C22.2225 10.84 22.8825 10.18 23.5625 9.5 C26.25 8.875 26.25 8.875 29.5625 8.5 C30.635 8.335 31.7075 8.17 32.8125 8 C38.55278619 8.76537149 42.12551972 11.93542137 46.5625 15.5 C47.32949219 16.10199219 48.09648437 16.70398438 48.88671875 17.32421875 C63.50498108 29.49334812 71.37010139 46.29821968 75.5625 64.5 C75.5625 65.16 75.5625 65.82 75.5625 66.5 C78.2502381 64.60450405 80.93764602 62.70854049 83.625 60.8125 C84.75325195 60.01682617 84.75325195 60.01682617 85.90429688 59.20507812 C87.40424737 58.1466715 88.90343839 57.08718774 90.40185547 56.02661133 C91.79379093 55.04313422 93.18845056 54.06349576 94.58642578 53.08862305 C97.4245501 51.09672846 99.8788152 49.17649582 102.3125 46.6875 C104.5625 44.5 104.5625 44.5 107.5625 44.5 C106.17337093 46.2553265 104.77588227 48.00403907 103.375 49.75 C102.59769531 50.72453125 101.82039063 51.6990625 101.01953125 52.703125 C98.69925487 55.34432991 96.35234319 57.3786051 93.5625 59.5 C91.37454393 61.63037828 89.22614962 63.78501836 87.1484375 66.0234375 C78.59641599 74.99674086 68.62171365 81.98778188 57.5625 87.5 C56.86640625 87.87769531 56.1703125 88.25539063 55.453125 88.64453125 C47.91486532 92.66996192 35.88223475 97.75100551 27.2734375 96.046875 C26.42652344 95.77617187 26.42652344 95.77617187 25.5625 95.5 C26.2225 95.17 26.8825 94.84 27.5625 94.5 C28.21463292 92.47536745 28.21463292 92.47536745 28.5625 90.5 C28.2325 90.83 27.9025 91.16 27.5625 91.5 C25.9125 90.51 24.2625 89.52 22.5625 88.5 C23.0575 86.52 23.0575 86.52 23.5625 84.5 C25.2125 84.5 26.8625 84.5 28.5625 84.5 C28.5625 83.84 28.5625 83.18 28.5625 82.5 C33.40491633 81.16416101 37.49687617 80.24671881 42.5625 80.5 C42.418125 79.81035156 42.27375 79.12070313 42.125 78.41015625 C41.22340915 73.84585255 40.4369268 69.59816147 40.6875 64.9375 C40.87288161 58.50707531 38.06807703 52.75836554 34.5625 47.5 C34.5625 46.51 34.5625 45.52 34.5625 44.5 C33.9025 44.5 33.2425 44.5 32.5625 44.5 C33.38419938 41.09581686 34.45502516 37.82242452 35.5625 34.5 C35.005625 34.685625 34.44875 34.87125 33.875 35.0625 C31.163367 35.57551165 29.21878961 35.1640724 26.5625 34.5 C26.76875 33.901875 26.975 33.30375 27.1875 32.6875 C27.86921915 30.21549154 27.86921915 30.21549154 25.5625 27.5 C24.2425 27.5 22.9225 27.5 21.5625 27.5 C19.65330647 24.88369776 18.58705574 22.57366722 17.5625 19.5 C17.10875 19.995 16.655 20.49 16.1875 21 C14.5625 22.5 14.5625 22.5 12.5625 22.5 C12.5625 21.84 12.5625 21.18 12.5625 20.5 C11.44875 20.273125 10.335 20.04625 9.1875 19.8125 C5.5625 18.5 5.5625 18.5 4.0625 16 C3.5625 13.5 3.5625 13.5 4.5625 11.5 C3.5725 11.83 2.5825 12.16 1.5625 12.5 C0.5725 12.17 -0.4175 11.84 -1.4375 11.5 C-4.01107811 11.31229981 -6.58211229 11.18400329 -9.16015625 11.07421875 C-11.4375 10.5 -11.4375 10.5 -12.80859375 8.58203125 C-13.4375 6.5 -13.4375 6.5 -12.4375 4.5 C-13.7575 4.5 -15.0775 4.5 -16.4375 4.5 C-16.1075 3.51 -15.7775 2.52 -15.4375 1.5 C-10.18306715 -0.45753381 -5.50520702 -1.12927323 0 0 Z " fill="#C3A973" transform="translate(283.4375,93.5)"/>
<path d="M0 0 C0.88413574 0.14920898 1.76827148 0.29841797 2.67919922 0.45214844 C8.10409426 1.45527707 12.97045543 3.01435285 18.03588867 5.20263672 C21.39327451 6.56287304 24.78057957 7.34012879 28.3125 8.125 C27.5 10.0625 27.5 10.0625 26.3125 12.125 C25.3225 12.455 24.3325 12.785 23.3125 13.125 C23.498125 13.74375 23.68375 14.3625 23.875 15 C24.49902488 19.4573206 23.87353695 23.67986111 23.3125 28.125 C21.3125 26.125 21.3125 26.125 21.1875 23.5 C21.22875 22.71625 21.27 21.9325 21.3125 21.125 C20.0646875 21.17269531 18.816875 21.22039062 17.53125 21.26953125 C11.76596722 21.26615842 6.41897156 20.05538577 0.8125 18.8125 C-37.76432814 10.83976697 -77.36287762 10.32793971 -115.9230957 18.76660156 C-121.48998803 19.9783929 -127.01022474 20.66018515 -132.6875 21.125 C-96.95524318 -6.7747144 -42.4207158 -7.36435732 0 0 Z " fill="#F7DC8A" transform="translate(168.6875,170.875)"/>
<path d="M0 0 C4.1086721 0.21398133 8.21606351 0.44457133 12.32299805 0.68969727 C13.71630303 0.77061545 15.10986631 0.84721867 16.50366211 0.91918945 C24.4213018 1.33112263 31.59683057 2.02562255 39 5 C41.35148494 5.73776915 43.70537428 6.46795636 46.0625 7.1875 C47.18785156 7.53167969 48.31320313 7.87585938 49.47265625 8.23046875 C50.30667969 8.48441406 51.14070313 8.73835937 52 9 C51.1875 10.9375 51.1875 10.9375 50 13 C49.01 13.33 48.02 13.66 47 14 C47.185625 14.61875 47.37125 15.2375 47.5625 15.875 C48.18652488 20.3323206 47.56103695 24.55486111 47 29 C45 27 45 27 44.875 24.375 C44.91625 23.59125 44.9575 22.8075 45 22 C43.77152344 22.04898438 42.54304688 22.09796875 41.27734375 22.1484375 C35.20521088 22.14606233 29.4788272 20.89151382 23.5625 19.625 C22.49451172 19.40328125 21.42652344 19.1815625 20.32617188 18.953125 C18.22473176 18.51666218 16.12395753 18.07697865 14.02392578 17.63378906 C9.68869862 16.72516241 5.34525331 15.85920685 1 15 C1 14.34 1 13.68 1 13 C-0.32 12.67 -1.64 12.34 -3 12 C-3.33 10.68 -3.66 9.36 -4 8 C-3.01 8 -2.02 8 -1 8 C-1.020625 7.05125 -1.04125 6.1025 -1.0625 5.125 C-1 2 -1 2 0 0 Z " fill="#F1C16E" transform="translate(145,170)"/>
<path d="M0 0 C1.010625 0.12375 2.02125 0.2475 3.0625 0.375 C3.80242187 0.46523437 4.54234375 0.55546875 5.3046875 0.6484375 C7.25042751 0.90222968 9.19290736 1.18146471 11.1328125 1.4765625 C22.06596817 3.08649971 32.9649987 3.60777195 44 4 C44 4.66 44 5.32 44 6 C42.35 6 40.7 6 39 6 C38.69302969 8.96162871 38.69302969 8.96162871 40.3125 10.6875 C42.03837129 12.30697031 42.03837129 12.30697031 45 12 C43.25 16.875 43.25 16.875 41 18 C27.13112488 19.08866051 13.56358453 17.8114609 0 15 C-1.09957031 14.78730469 -2.19914062 14.57460937 -3.33203125 14.35546875 C-5.55846385 13.9226378 -7.7801576 13.46545083 -10 13 C-9.34 12.34 -8.68 11.68 -8 11 C-6.68 11 -5.36 11 -4 11 C-4.33 9.02 -4.66 7.04 -5 5 C-4.360625 4.731875 -3.72125 4.46375 -3.0625 4.1875 C-0.66868314 3.11332248 -0.66868314 3.11332248 0 0 Z " fill="#DED7C9" transform="translate(268,172)"/>
<path d="M0 0 C13.89526242 5.31289445 21.03442407 15.78454215 27.12304688 28.90869141 C29.7411728 35.15225116 33 43.18362584 33 50 C35.6877381 48.10450405 38.37514602 46.20854049 41.0625 44.3125 C42.19075195 43.51682617 42.19075195 43.51682617 43.34179688 42.70507812 C44.84174737 41.6466715 46.34093839 40.58718774 47.83935547 39.52661133 C49.23129093 38.54313422 50.62595056 37.56349576 52.02392578 36.58862305 C54.8620501 34.59672846 57.3163152 32.67649582 59.75 30.1875 C62 28 62 28 65 28 C63.61087093 29.7553265 62.21338227 31.50403907 60.8125 33.25 C59.64654297 34.71179688 59.64654297 34.71179688 58.45703125 36.203125 C56.13675487 38.84432991 53.78984319 40.8786051 51 43 C48.81204393 45.13037828 46.66364962 47.28501836 44.5859375 49.5234375 C36.05098387 58.4788322 26.06303519 65.53312451 15 71 C13.85724609 71.57234375 13.85724609 71.57234375 12.69140625 72.15625 C12.13324219 72.4346875 11.57507813 72.713125 11 73 C11 72.34 11 71.68 11 71 C7.535 71.99 7.535 71.99 4 73 C3.505 70.03 3.505 70.03 3 67 C6.89512491 65.7844371 9.91795939 66.2934942 13.87890625 66.94140625 C16.30644107 67.21276381 16.30644107 67.21276381 19 65 C18.67 62.69 18.34 60.38 18 58 C19.98 58.33 21.96 58.66 24 59 C24 59.66 24 60.32 24 61 C27.48712375 57.51287625 29.31075265 54.96258091 30 50 C29.34 50 28.68 50 28 50 C27.01 46.535 27.01 46.535 26 43 C26.66 43 27.32 43 28 43 C28 41.35 28 39.7 28 38 C27.34 37.67 26.68 37.34 26 37 C26 36.01 26 35.02 26 34 C24.02 34 22.04 34 20 34 C19.34 32.35 18.68 30.7 18 29 C18.66 29 19.32 29 20 29 C19.34 28.34 18.68 27.68 18 27 C17.8046875 24.8359375 17.8046875 24.8359375 17.875 22.375 C17.89304687 21.55773437 17.91109375 20.74046875 17.9296875 19.8984375 C17.95289063 19.27195313 17.97609375 18.64546875 18 18 C15.36 18 12.72 18 10 18 C10.20625 17.236875 10.4125 16.47375 10.625 15.6875 C11.33391203 12.78114056 11.33391203 12.78114056 9 10 C5.91634129 9.7497843 5.91634129 9.7497843 3 10 C2.01 6.7 1.02 3.4 0 0 Z " fill="#A6813A" transform="translate(326,110)"/>
<path d="M0 0 C21.9193731 -0.83709063 42.05542313 3.00310328 62 12 C62 12.66 62 13.32 62 14 C59.69 13.67 57.38 13.34 55 13 C54.67 13.66 54.34 14.32 54 15 C52.0625 15.5625 52.0625 15.5625 50 16 C49.01 16.495 49.01 16.495 48 17 C48 14.33333333 48 11.66666667 48 9 C47.14535156 8.78730469 47.14535156 8.78730469 46.2734375 8.5703125 C44.79697956 8.19992958 43.3228143 7.82023798 41.8515625 7.4296875 C37.21952406 6.27574108 33.73433468 5.78606803 29 7 C29 6.34 29 5.68 29 5 C28.01 5.33 27.02 5.66 26 6 C25.01 5.67 24.02 5.34 23 5 C20.80878792 4.98270957 20.80878792 4.98270957 18.5 5.25 C17.7265625 5.31703125 16.953125 5.3840625 16.15625 5.453125 C13.63215042 6.09329518 12.65141376 7.03100667 11 9 C12.32 9 13.64 9 15 9 C15.33 10.65 15.66 12.3 16 14 C16.65226562 14.06058594 17.30453125 14.12117188 17.9765625 14.18359375 C22.68716217 14.63519991 27.34201638 15.14195039 32 16 C32.495 19.465 32.495 19.465 33 23 C34.98 23 36.96 23 39 23 C39.495 24.98 39.495 24.98 40 27 C40.66 26.67 41.32 26.34 42 26 C41.505 25.01 41.505 25.01 41 24 C42.32 24 43.64 24 45 24 C49 28.11111111 49 28.11111111 49 32 C50.32 31.67 51.64 31.34 53 31 C54.5625 32.8125 54.5625 32.8125 56 35 C55.67 35.99 55.34 36.98 55 38 C57.64 38.33 60.28 38.66 63 39 C63 41.31 63 43.62 63 46 C62.34 46 61.68 46 61 46 C60.67 46.99 60.34 47.98 60 49 C60.66 49 61.32 49 62 49 C62.28875 49.78375 62.5775 50.5675 62.875 51.375 C63.84912254 54.09671632 63.84912254 54.09671632 66 56 C67.93830937 60.52568564 69.48118453 65.0277599 69 70 C67 69 67 69 66.0703125 66.77734375 C65.75835937 65.84019531 65.44640625 64.90304688 65.125 63.9375 C58.39519585 44.76250655 46.12588391 30.46889543 27.75 21.625 C16.98019676 16.6548863 5.73658198 14.34767887 -6 13 C-6 12.67 -6 12.34 -6 12 C0.435 11.505 0.435 11.505 7 11 C6.67 9.68 6.34 8.36 6 7 C6.33 6.34 6.66 5.68 7 5 C6.01 5 5.02 5 4 5 C4 4.34 4 3.68 4 3 C2.68 2.34 1.36 1.68 0 1 C0 0.67 0 0.34 0 0 Z " fill="#E8C78D" transform="translate(256,89)"/>
<path d="M0 0 C0.66 0 1.32 0 2 0 C2.01981934 0.86165771 2.03963867 1.72331543 2.06005859 2.61108398 C2.13877354 5.84861657 2.22548372 9.08581491 2.31738281 12.32299805 C2.35535297 13.71647073 2.3902577 15.11003081 2.421875 16.50366211 C2.00284985 29.87957504 2.00284985 29.87957504 7.25390625 41.421875 C21.44879512 49.57939293 39.23289443 47.39781149 55 47 C54.505 47.99 54.505 47.99 54 49 C51.35139573 49.59355614 48.70802678 49.74209269 46 50 C46.495 52.97 46.495 52.97 47 56 C44.525 56.495 44.525 56.495 42 57 C42.99 57.66 43.98 58.32 45 59 C39.11664051 60.01967441 33.40130062 60.15429731 27.4375 60.125 C26.47110596 60.12234131 25.50471191 60.11968262 24.5090332 60.11694336 C2.97523825 59.97523825 2.97523825 59.97523825 1 58 C-0.84891946 57.76636119 -2.70488031 57.58696365 -4.5625 57.4375 C-5.57441406 57.35371094 -6.58632812 57.26992188 -7.62890625 57.18359375 C-8.80259766 57.09271484 -8.80259766 57.09271484 -10 57 C-10 56.67 -10 56.34 -10 56 C-7.89594609 55.83191581 -5.79175242 55.66558052 -3.6875 55.5 C-2.51574219 55.4071875 -1.34398437 55.314375 -0.13671875 55.21875 C4.75099099 54.87788855 9.16157257 55.36545214 14 56 C14 55.34 14 54.68 14 54 C15.65 54.33 17.3 54.66 19 55 C19.66 53.68 20.32 52.36 21 51 C19.68 50.34 18.36 49.68 17 49 C16.67 49.99 16.34 50.98 16 52 C11.68433833 51.52048204 9.7980059 50.29764982 7 47 C6.67 46.34 6.34 45.68 6 45 C5.01268258 43.65724831 4.01405257 42.32267727 3 41 C1.02 41.495 1.02 41.495 -1 42 C-0.979375 41.2575 -0.95875 40.515 -0.9375 39.75 C-0.99328688 37.29537721 -1.3069904 35.33890739 -2 33 C-1.34 33 -0.68 33 0 33 C-0.03552979 32.0713916 -0.07105957 31.1427832 -0.10766602 30.18603516 C-0.23676274 26.74589852 -0.36109484 23.30565875 -0.48217773 19.86523438 C-0.53560003 18.37525558 -0.59092962 16.88534391 -0.64819336 15.39550781 C-0.73009836 13.25600663 -0.80517709 11.11635907 -0.87890625 8.9765625 C-0.9260376 7.68830566 -0.97316895 6.40004883 -1.02172852 5.07275391 C-1 2 -1 2 0 0 Z " fill="#DDD7CB" transform="translate(218,211)"/>
<path d="M0 0 C0 -0.66 0 -1.32 0 -2 C7.32681527 -1.37023181 14.24722699 0.09088099 21.375 1.875 C22.45394531 2.13152344 23.53289062 2.38804687 24.64453125 2.65234375 C26.19333984 3.03712891 26.19333984 3.03712891 27.7734375 3.4296875 C28.70591309 3.65897949 29.63838867 3.88827148 30.59912109 4.12451172 C33.11193513 5.04081751 34.30097279 5.97007611 36 8 C34 10 34 10 31 11 C31.185625 11.61875 31.37125 12.2375 31.5625 12.875 C32 15 32 15 31 17 C23.50161265 19.04731798 16.68458776 17.34072594 9.4375 15.1875 C8.44169922 14.91357422 7.44589844 14.63964844 6.41992188 14.35742188 C1.09100085 12.84058906 1.09100085 12.84058906 -1 12 C-1.33 11.34 -1.66 10.68 -2 10 C-3.88263881 9.09656316 -3.88263881 9.09656316 -6.0625 8.375 C-6.79597656 8.11460937 -7.52945313 7.85421875 -8.28515625 7.5859375 C-8.85105469 7.39257812 -9.41695312 7.19921875 -10 7 C-10 6.34 -10 5.68 -10 5 C-10.66 4.67 -11.32 4.34 -12 4 C-11.34 3.01 -10.68 2.02 -10 1 C-10.66 0.67 -11.32 0.34 -12 0 C-7.22144261 -2.04795317 -4.77855739 -2.04795317 0 0 Z " fill="#F2C46F" transform="translate(233,166)"/>
<path d="M0 0 C0.66 0.33 1.32 0.66 2 1 C-1.17345348 4.26412358 -4.42963696 7.18129234 -8 10 C-9.0173873 10.98230498 -10.02596117 11.97469597 -11 13 C-10.505 14.485 -10.505 14.485 -10 16 C-10.66 16 -11.32 16 -12 16 C-12 17.98 -12 19.96 -12 22 C-10.68 22.33 -9.36 22.66 -8 23 C-8 23.66 -8 24.32 -8 25 C-22.76754054 30.80679738 -38.21852778 32.6369204 -54 32 C-50.34375 28.03125 -50.34375 28.03125 -47.25 27.75 C-46.5075 27.8325 -45.765 27.915 -45 28 C-45.33 26.02 -45.66 24.04 -46 22 C-44.6875 21.5625 -43.375 21.125 -42.0625 20.6875 C-40.81919922 20.27177734 -40.81919922 20.27177734 -39.55078125 19.84765625 C-37.98778367 19.32825276 -36.42305182 18.81398938 -34.85546875 18.30859375 C-32.56136024 17.56375332 -30.28099156 16.78409085 -28 16 C-27.01 15.67515625 -26.02 15.3503125 -25 15.015625 C-15.718368 11.75812916 -7.0218171 7.0218171 0 0 Z " fill="#BDA062" transform="translate(310,239)"/>
<path d="M0 0 C8.14340659 1.42940158 16.06364747 3.58901972 24.02859497 5.76950073 C41.83063783 10.6218909 59.56952732 14.68478126 77.99047852 16.31811523 C79.66793127 16.47992539 81.33638212 16.73091675 83 17 C83.495 17.99 83.495 17.99 84 19 C80.72918529 19.02902429 77.4584037 19.04680684 74.1875 19.0625 C73.25873047 19.07087891 72.32996094 19.07925781 71.37304688 19.08789062 C70.48037109 19.09111328 69.58769531 19.09433594 68.66796875 19.09765625 C67.43469849 19.10551147 67.43469849 19.10551147 66.17651367 19.11352539 C64 19 64 19 61 18 C60.01 18.33 59.02 18.66 58 19 C58 18.34 58 17.68 58 17 C56.9171875 17.495 56.9171875 17.495 55.8125 18 C52.98302573 19.00603529 50.97104534 19.16977402 48 19 C47.505 18.01 47.505 18.01 47 17 C42.85329961 19.37629089 42.85329961 19.37629089 40 23 C40.66 23.33 41.32 23.66 42 24 C41.01 24.495 41.01 24.495 40 25 C42.64 25.33 45.28 25.66 48 26 C48 26.66 48 27.32 48 28 C49.19625 27.95875 50.3925 27.9175 51.625 27.875 C55.42329953 27.86148292 58.44975618 28.57990247 62 30 C62 30.33 62 30.66 62 31 C54.97068787 31.29444592 48.79790254 30.57019901 42 28.8125 C41.10442383 28.58908936 40.20884766 28.36567871 39.28613281 28.13549805 C36.5200077 27.43860417 33.75972004 26.72180311 31 26 C29.66291992 25.65582031 29.66291992 25.65582031 28.29882812 25.3046875 C25.77914391 24.65275434 23.26383222 23.98661309 20.75 23.3125 C19.98171875 23.11052002 19.2134375 22.90854004 18.421875 22.70043945 C16.59619504 22.19598629 14.79453984 21.60597613 13 21 C12.67 20.34 12.34 19.68 12 19 C17.61 19.33 23.22 19.66 29 20 C29 20.66 29 21.32 29 22 C30.32 21.34 31.64 20.68 33 20 C33 20.66 33 21.32 33 22 C33.66 22.33 34.32 22.66 35 23 C35 23.66 35 24.32 35 25 C35.66 25 36.32 25 37 25 C37 23.35 37 21.7 37 20 C38.32 19.67 39.64 19.34 41 19 C40.505 16.03 40.505 16.03 40 13 C38.08404518 12.66259915 36.16720278 12.33023588 34.25 12 C33.18265625 11.814375 32.1153125 11.62875 31.015625 11.4375 C27.84810626 10.90428357 27.84810626 10.90428357 24 11 C23.31679687 10.98839844 22.63359375 10.97679687 21.9296875 10.96484375 C17.83514981 10.80154265 17.83514981 10.80154265 14 12 C13.34 11.34 12.68 10.68 12 10 C10.68 10 9.36 10 8 10 C8 8.02 8 6.04 8 4 C6.865625 3.71125 5.73125 3.4225 4.5625 3.125 C3.386875 2.75375 2.21125 2.3825 1 2 C0.67 1.34 0.34 0.68 0 0 Z " fill="#E6E1D8" transform="translate(208,181)"/>
<path d="M0 0 C0.99 0.495 0.99 0.495 2 1 C-15.48245499 21.84677623 -15.48245499 21.84677623 -23.1171875 27.17578125 C-27.10641904 30.46039654 -27.72382427 34.7525109 -28.75 39.625 C-29.13580303 41.32662129 -29.52624212 43.02719979 -29.921875 44.7265625 C-30.08268555 45.47502441 -30.24349609 46.22348633 -30.40917969 46.99462891 C-31 49 -31 49 -33 52 C-33.625 48.625 -33.625 48.625 -34 45 C-33.34 44.34 -32.68 43.68 -32 43 C-32.66 41.35 -33.32 39.7 -34 38 C-33.34 37.34 -32.68 36.68 -32 36 C-31.37068467 33.32404177 -31.21869188 30.75551768 -31 28 C-31.33 27.67 -31.66 27.34 -32 27 C-32.495 28.485 -32.495 28.485 -33 30 C-33 29.34 -33 28.68 -33 28 C-33.9075 28.474375 -34.815 28.94875 -35.75 29.4375 C-39.94482875 31.45424459 -42.33444286 32 -47 32 C-49.20067421 32.93283296 -49.20067421 32.93283296 -51 34 C-51 34.66 -51 35.32 -51 36 C-52.485 36.495 -52.485 36.495 -54 37 C-54.66 37.66 -55.32 38.32 -56 39 C-58.3828125 39.4140625 -58.3828125 39.4140625 -61.125 39.625 C-62.03507812 39.69976562 -62.94515625 39.77453125 -63.8828125 39.8515625 C-64.58148438 39.90054688 -65.28015625 39.94953125 -66 40 C-65.67 39.01 -65.34 38.02 -65 37 C-68.63 37 -72.26 37 -76 37 C-76 36.67 -76 36.34 -76 36 C-74.75347656 35.78085938 -73.50695312 35.56171875 -72.22265625 35.3359375 C-43.81813633 30.13803672 -21.99987833 18.51909881 0 0 Z " fill="#A27E3C" transform="translate(386,161)"/>
<path d="M0 0 C2.5419589 -0.05434116 5.08273682 -0.0938339 7.625 -0.125 C8.33785156 -0.14175781 9.05070312 -0.15851563 9.78515625 -0.17578125 C14.2612164 -0.21684602 17.77949278 0.30913433 22 2 C21.34 2.33 20.68 2.66 20 3 C20 3.66 20 4.32 20 5 C20.99 5 21.98 5 23 5 C23 6.32 23 7.64 23 9 C23.99 9.66 24.98 10.32 26 11 C15.57794924 14.47401692 1.66150919 11.68469061 -9 10 C-9.66 9.67 -10.32 9.34 -11 9 C-11.12375 8.360625 -11.2475 7.72125 -11.375 7.0625 C-11.80939427 4.80148727 -11.80939427 4.80148727 -14.0625 3.75 C-14.701875 3.5025 -15.34125 3.255 -16 3 C-10.63904667 1.87137825 -5.44693314 1.90311779 0 2 C0 1.34 0 0.68 0 0 Z " fill="#F1C16B" transform="translate(240,89)"/>
<path d="M0 0 C0.66 0.66 1.32 1.32 2 2 C1.34 2.66 0.68 3.32 0 4 C0 4.99 0 5.98 0 7 C-3.07617188 7.29296875 -3.07617188 7.29296875 -6.15234375 7.5859375 C-6.76207031 7.72257813 -7.37179688 7.85921875 -8 8 C-8.33 8.66 -8.66 9.32 -9 10 C-12.00815001 10.55189849 -14.9692782 10.9934503 -18 11.375 C-25.61296745 12.40864836 -33.00962659 13.7789627 -40.44140625 15.72998047 C-44.39061709 16.73994582 -47.92541048 17.18291501 -52 17 C-49.35288476 14.91511713 -46.77876961 13.28262275 -43.734375 11.84375 C-42.92613281 11.46089844 -42.11789063 11.07804688 -41.28515625 10.68359375 C-40.44855469 10.29300781 -39.61195312 9.90242187 -38.75 9.5 C-37.92886719 9.10941406 -37.10773437 8.71882812 -36.26171875 8.31640625 C-22.35382176 1.77021702 -22.35382176 1.77021702 -16 1.4375 C-12.71455674 1.19957114 -9.73756596 0.75469718 -6.5625 -0.125 C-3 -1 -3 -1 0 0 Z " fill="#E8C87E" transform="translate(88,175)"/>
<path d="M0 0 C2.3431213 0.25561323 4.67843403 0.59270772 7 1 C7.33 1.66 7.66 2.32 8 3 C10.80980673 3.69227032 10.80980673 3.69227032 14.0625 4.125 C15.71958984 4.37636719 15.71958984 4.37636719 17.41015625 4.6328125 C18.26480469 4.75398437 19.11945313 4.87515625 20 5 C20.33 7.64 20.66 10.28 21 13 C20.01 12.67 19.02 12.34 18 12 C17.67 12.99 17.34 13.98 17 15 C-1.34042553 15.38297872 -1.34042553 15.38297872 -10 13 C-9.34 12.34 -8.68 11.68 -8 11 C-6.68 11 -5.36 11 -4 11 C-4.33 9.02 -4.66 7.04 -5 5 C-4.360625 4.731875 -3.72125 4.46375 -3.0625 4.1875 C-0.66868314 3.11332248 -0.66868314 3.11332248 0 0 Z " fill="#E9CFA6" transform="translate(268,172)"/>
<path d="M0 0 C14.70291476 5.6217027 21.76313145 17.12397698 28 31 C30.14459699 36.38867751 32 41.16865911 32 47 C31.34 47 30.68 47 30 47 C29.87882812 46.36191406 29.75765625 45.72382813 29.6328125 45.06640625 C29.46523438 44.24011719 29.29765625 43.41382813 29.125 42.5625 C28.96257812 41.73878906 28.80015625 40.91507813 28.6328125 40.06640625 C28.42398437 39.38449219 28.21515625 38.70257813 28 38 C27.34 37.67 26.68 37.34 26 37 C26 36.01 26 35.02 26 34 C24.02 34 22.04 34 20 34 C19.34 32.35 18.68 30.7 18 29 C18.66 29 19.32 29 20 29 C19.34 28.34 18.68 27.68 18 27 C17.8046875 24.8359375 17.8046875 24.8359375 17.875 22.375 C17.89304687 21.55773437 17.91109375 20.74046875 17.9296875 19.8984375 C17.95289063 19.27195313 17.97609375 18.64546875 18 18 C15.36 18 12.72 18 10 18 C10.20625 17.236875 10.4125 16.47375 10.625 15.6875 C11.33391203 12.78114056 11.33391203 12.78114056 9 10 C5.91634129 9.7497843 5.91634129 9.7497843 3 10 C2.01 6.7 1.02 3.4 0 0 Z " fill="#B89959" transform="translate(326,110)"/>
<path d="M0 0 C0.66 0 1.32 0 2 0 C1.98839844 1.03640625 1.97679687 2.0728125 1.96484375 3.140625 C1.95546163 4.51041486 1.94636188 5.88020668 1.9375 7.25 C1.92912109 7.93191406 1.92074219 8.61382812 1.91210938 9.31640625 C1.89561703 12.71382842 2.02052562 15.74267823 3 19 C3.15176933 22.11127131 2.99640169 24.01079494 2 27 C6.29 27.33 10.58 27.66 15 28 C15 28.33 15 28.66 15 29 C10.5163955 29.19272034 6.0325155 29.3713676 1.54785156 29.53710938 C0.0229599 29.59543502 -1.50179094 29.65757438 -3.02636719 29.72363281 C-5.22044224 29.81803239 -7.41466149 29.89861231 -9.609375 29.9765625 C-10.62834869 30.02485703 -10.62834869 30.02485703 -11.66790771 30.0741272 C-15.32373792 30.18928821 -17.89655637 30.02068663 -21 28 C-20.67 26.68 -20.34 25.36 -20 24 C-19.09636719 23.89042969 -18.19273437 23.78085937 -17.26171875 23.66796875 C-16.08222656 23.50941406 -14.90273437 23.35085938 -13.6875 23.1875 C-12.51574219 23.03667969 -11.34398437 22.88585937 -10.13671875 22.73046875 C-6.91740152 21.98076474 -5.8186112 21.6889037 -4 19 C-1.69142144 12.8931191 -0.61090017 6.47554177 0 0 Z " fill="#E6C385" transform="translate(189,240)"/>
<path d="M0 0 C3.53931625 -0.19007439 5.29379085 -0.08434436 8.171875 2.07421875 C9.671875 4.19921875 9.671875 4.19921875 9.671875 6.19921875 C9.011875 6.52921875 8.351875 6.85921875 7.671875 7.19921875 C10.311875 6.86921875 12.951875 6.53921875 15.671875 6.19921875 C13.19231903 8.48803965 12.04592496 9.1839514 8.609375 9.32421875 C7.64 9.28296875 6.670625 9.24171875 5.671875 9.19921875 C4.681875 9.52921875 3.691875 9.85921875 2.671875 10.19921875 C0.59450278 9.94465205 -1.47215978 9.59872379 -3.52734375 9.203125 C-4.73583984 8.97431641 -5.94433594 8.74550781 -7.18945312 8.50976562 C-9.0834082 8.13948242 -9.0834082 8.13948242 -11.015625 7.76171875 C-12.92698242 7.39723633 -12.92698242 7.39723633 -14.87695312 7.02539062 C-18.02869485 6.42337254 -21.17892734 5.8143829 -24.328125 5.19921875 C-24.328125 4.53921875 -24.328125 3.87921875 -24.328125 3.19921875 C-16.21759463 1.58338775 -8.22546718 0.70385709 0 0 Z " fill="#EFD28B" transform="translate(181.328125,155.80078125)"/>
<path d="M0 0 C0 0.33 0 0.66 0 1 C-0.87736816 1.01981934 -1.75473633 1.03963867 -2.65869141 1.06005859 C-5.93532577 1.138476 -9.21152861 1.22517883 -12.48779297 1.31738281 C-13.90177063 1.35550238 -15.31583965 1.39038404 -16.72998047 1.421875 C-18.7708384 1.46789858 -20.8110766 1.52582667 -22.8515625 1.5859375 C-24.07697754 1.6173584 -25.30239258 1.6487793 -26.56494141 1.68115234 C-30.02772576 2.00257355 -32.79741559 2.65675137 -36 4 C-37.42055068 6.00136244 -37.42055068 6.00136244 -38 8 C-38 7.34 -38 6.68 -38 6 C-38.66 6 -39.32 6 -40 6 C-40.495 5.01 -40.495 5.01 -41 4 C-42.8871875 3.9690625 -42.8871875 3.9690625 -44.8125 3.9375 C-45.52019531 3.92589844 -46.22789063 3.91429687 -46.95703125 3.90234375 C-49.20305461 3.91736783 -49.20305461 3.91736783 -52 5 C-52.99 4.67 -53.98 4.34 -55 4 C-55.33 4.66 -55.66 5.32 -56 6 C-55.67 6.33 -55.34 6.66 -55 7 C-54.01 8.485 -54.01 8.485 -53 10 C-55.74621772 9.51537334 -58.13245058 8.94519286 -60.71875 7.875 C-64.78224578 6.79140112 -67.31387358 7.37887465 -71.375 8.375 C-72.62023437 8.67148438 -73.86546875 8.96796875 -75.1484375 9.2734375 C-76.08945313 9.51320312 -77.03046875 9.75296875 -78 10 C-78.33 9.34 -78.66 8.68 -79 8 C-53.13662513 -0.1719571 -26.96521099 -2.75556901 0 0 Z " fill="#F3DC96" transform="translate(149,168)"/>
<path d="M0 0 C0.66 0 1.32 0 2 0 C2.01981934 0.86165771 2.03963867 1.72331543 2.06005859 2.61108398 C2.13877354 5.84861657 2.22548372 9.08581491 2.31738281 12.32299805 C2.35535297 13.71647073 2.3902577 15.11003081 2.421875 16.50366211 C2.02707625 29.9088312 2.02707625 29.9088312 7.3125 41.4375 C9.91457047 43.07636187 9.91457047 43.07636187 12.6875 43.875 C15 45 15 45 16.3125 48.125 C16.539375 49.07375 16.76625 50.0225 17 51 C14.8125 51.8125 14.8125 51.8125 12 52 C9.43588292 49.84381063 7.50450187 48.00900373 6 45 C5.01268258 43.65724831 4.01405257 42.32267727 3 41 C1.02 41.495 1.02 41.495 -1 42 C-0.979375 41.2575 -0.95875 40.515 -0.9375 39.75 C-0.99328688 37.29537721 -1.3069904 35.33890739 -2 33 C-1.34 33 -0.68 33 0 33 C-0.03552979 32.0713916 -0.07105957 31.1427832 -0.10766602 30.18603516 C-0.23676274 26.74589852 -0.36109484 23.30565875 -0.48217773 19.86523438 C-0.53560003 18.37525558 -0.59092962 16.88534391 -0.64819336 15.39550781 C-0.73009836 13.25600663 -0.80517709 11.11635907 -0.87890625 8.9765625 C-0.9260376 7.68830566 -0.97316895 6.40004883 -1.02172852 5.07275391 C-1 2 -1 2 0 0 Z " fill="#EEDEB5" transform="translate(218,211)"/>
<path d="M0 0 C-0.4979837 3.73487777 -0.87491756 5.81237635 -3 9 C-0.03 9.495 -0.03 9.495 3 10 C3 10.66 3 11.32 3 12 C0.91952703 12.5321441 -1.16452293 13.05031786 -3.25 13.5625 C-4.41015625 13.85253906 -5.5703125 14.14257812 -6.765625 14.44140625 C-9.72090983 14.95179964 -11.24434101 15.02996165 -14 14 C-13.34 13.67 -12.68 13.34 -12 13 C-11.34786708 10.97536745 -11.34786708 10.97536745 -11 9 C-11.33 9.33 -11.66 9.66 -12 10 C-13.65 9.01 -15.3 8.02 -17 7 C-16.67 5.68 -16.34 4.36 -16 3 C-14.35 3 -12.7 3 -11 3 C-11 2.34 -11 1.68 -11 1 C-3.375 -1.125 -3.375 -1.125 0 0 Z " fill="#CEC09F" transform="translate(323,175)"/>
<path d="M0 0 C1.32 0 2.64 0 4 0 C3.67 0.99 3.34 1.98 3 3 C3.08221709 6.07665027 3.08221709 6.07665027 4 9 C5.95163118 10.43637698 5.95163118 10.43637698 8 11 C3.94607705 15.05392295 -3.54803993 14.04659216 -8.9934082 14.06591797 C-11.99582929 14.06095822 -14.99779978 14.03559921 -18 14 C-14.34375 10.03125 -14.34375 10.03125 -11.25 9.75 C-10.5075 9.8325 -9.765 9.915 -9 10 C-9.33 8.02 -9.66 6.04 -10 4 C-9.36191406 3.79503906 -8.72382813 3.59007812 -8.06640625 3.37890625 C-6.82697266 2.97478516 -6.82697266 2.97478516 -5.5625 2.5625 C-4.73878906 2.29566406 -3.91507812 2.02882813 -3.06640625 1.75390625 C-1.03780412 1.17844506 -1.03780412 1.17844506 0 0 Z " fill="#CFBD9A" transform="translate(274,257)"/>
<path d="M0 0 C-2.64 1.65 -5.28 3.3 -8 5 C-7.49547781 8.74787912 -6.91840767 12.32636934 -6 16 C-9.63 16.33 -13.26 16.66 -17 17 C-17.33 16.34 -17.66 15.68 -18 15 C-20.01669827 13.86649466 -20.01669827 13.86649466 -22 13 C-21.01 12.67 -20.02 12.34 -19 12 C-19.33 10.35 -19.66 8.7 -20 7 C-19.34 7 -18.68 7 -18 7 C-18 6.01 -18 5.02 -18 4 C-15.56592995 3.13475247 -13.12856816 2.28257135 -10.6875 1.4375 C-9.99720703 1.19064453 -9.30691406 0.94378906 -8.59570312 0.68945312 C-3.33984375 -1.11328125 -3.33984375 -1.11328125 0 0 Z M-22 8 C-20 9 -20 9 -20 9 Z " fill="#C3AB76" transform="translate(296,252)"/>
<path d="M0 0 C0.33 0.99 0.66 1.98 1 3 C2.32 2.67 3.64 2.34 5 2 C6.5625 3.8125 6.5625 3.8125 8 6 C7.67 6.99 7.34 7.98 7 9 C9.64 9.33 12.28 9.66 15 10 C15 12.31 15 14.62 15 17 C14.34 17 13.68 17 13 17 C12.67 17.99 12.34 18.98 12 20 C12.66 20 13.32 20 14 20 C14.433125 21.175625 14.433125 21.175625 14.875 22.375 C15.84912254 25.09671632 15.84912254 25.09671632 18 27 C19.93830937 31.52568564 21.48118453 36.0277599 21 41 C19 40 19 40 18.0703125 37.77734375 C17.75835937 36.84019531 17.44640625 35.90304688 17.125 34.9375 C13.08526587 23.42722811 6.92495548 12.4787077 -2 4 C-1.34 2.68 -0.68 1.36 0 0 Z " fill="#CBBA91" transform="translate(304,118)"/>
<path d="M0 0 C6.73691487 -0.2001328 13.01995363 0.22460207 19.625 1.5625 C20.47803711 1.73233398 21.33107422 1.90216797 22.20996094 2.07714844 C30.67489228 3.90612765 38.27331686 7.15824134 46 11 C46 11.66 46 12.32 46 13 C43.69 12.67 41.38 12.34 39 12 C38.67 12.66 38.34 13.32 38 14 C36.0625 14.5625 36.0625 14.5625 34 15 C33.34 15.33 32.68 15.66 32 16 C32 13.33333333 32 10.66666667 32 8 C31.43023437 7.85820313 30.86046875 7.71640625 30.2734375 7.5703125 C28.79697956 7.19992958 27.3228143 6.82023798 25.8515625 6.4296875 C21.21952406 5.27574108 17.73433468 4.78606803 13 6 C13 5.34 13 4.68 13 4 C12.01 4.33 11.02 4.66 10 5 C9.67 4.01 9.34 3.02 9 2 C6.03 2 3.06 2 0 2 C0 1.34 0 0.68 0 0 Z " fill="#E8DBC1" transform="translate(272,90)"/>
<path d="M0 0 C1.670625 0.2165625 1.670625 0.2165625 3.375 0.4375 C6.62109121 0.84613914 9.86814656 1.18911854 13.125 1.5 C16.7825899 1.85559902 20.38355867 2.33381344 24 3 C24.33 5.31 24.66 7.62 25 10 C26.98 10 28.96 10 31 10 C31.33 11.32 31.66 12.64 32 14 C32.66 13.67 33.32 13.34 34 13 C33.505 12.01 33.505 12.01 33 11 C34.32 11 35.64 11 37 11 C38.8125 13.25 38.8125 13.25 40 16 C39.6875 18.3125 39.6875 18.3125 39 20 C36.31468025 18.81845931 34.24146492 17.43794723 31.86328125 15.67578125 C28.02795065 12.91715722 24.03025422 10.85372291 19.75 8.875 C19.01144775 8.52953125 18.27289551 8.1840625 17.51196289 7.828125 C11.82441229 5.23234796 6.1344772 3.27194344 0 2 C0 1.34 0 0.68 0 0 Z " fill="#E7DDC7" transform="translate(264,102)"/>
<path d="M0 0 C0.66 0.66 1.32 1.32 2 2 C1.34 2.66 0.68 3.32 0 4 C0 4.99 0 5.98 0 7 C-1.50240234 7.19916016 -1.50240234 7.19916016 -3.03515625 7.40234375 C-4.37760654 7.58071127 -5.72005433 7.7590977 -7.0625 7.9375 C-7.71927734 8.02451172 -8.37605469 8.11152344 -9.05273438 8.20117188 C-13.37231192 8.77569697 -17.68707577 9.37745827 -22 10 C-21.360625 9.71125 -20.72125 9.4225 -20.0625 9.125 C-17.84793921 8.17176549 -17.84793921 8.17176549 -17 6 C-18.98 5.34 -20.96 4.68 -23 4 C-20.56675047 1.56675047 -19.72199896 1.70724452 -16.375 1.5 C-12.97054444 1.23394993 -9.85236839 0.79054779 -6.5625 -0.125 C-3 -1 -3 -1 0 0 Z " fill="#EED185" transform="translate(88,175)"/>
<path d="M0 0 C2.1953125 0.13671875 2.1953125 0.13671875 5.125 0.6875 C9.79860367 1.50511689 14.45001925 2.19248231 19.1640625 2.73828125 C20.24671387 2.86436768 21.32936523 2.9904541 22.44482422 3.12036133 C24.64104635 3.37262351 26.83800015 3.61859832 29.03564453 3.8581543 C30.04997559 3.97715088 31.06430664 4.09614746 32.109375 4.21875 C33.02686523 4.32123047 33.94435547 4.42371094 34.88964844 4.52929688 C35.58606445 4.68462891 36.28248047 4.83996094 37 5 C37.495 5.99 37.495 5.99 38 7 C34.72918529 7.02902429 31.4584037 7.04680684 28.1875 7.0625 C27.25873047 7.07087891 26.32996094 7.07925781 25.37304688 7.08789062 C24.48037109 7.09111328 23.58769531 7.09433594 22.66796875 7.09765625 C21.43469849 7.10551147 21.43469849 7.10551147 20.17651367 7.11352539 C18 7 18 7 15 6 C14.01 6.33 13.02 6.66 12 7 C12 6.34 12 5.68 12 5 C10.9171875 5.495 10.9171875 5.495 9.8125 6 C6.84476264 7.0551955 5.10199559 7.55676844 2 7 C-0.3125 4.5 -0.3125 4.5 -2 2 C-1.34 1.34 -0.68 0.68 0 0 Z " fill="#DACFC0" transform="translate(254,193)"/>
<path d="M0 0 C3.11968271 0.18351075 4.52434477 0.71817298 7.1875 2.1875 C8.1775 2.1875 9.1675 2.1875 10.1875 2.1875 C10.5175 1.5275 10.8475 0.8675 11.1875 0.1875 C14.6525 1.6725 14.6525 1.6725 18.1875 3.1875 C18.1875 3.8475 18.1875 4.5075 18.1875 5.1875 C19.5796875 4.6925 19.5796875 4.6925 21 4.1875 C24.1875 3.1875 24.1875 3.1875 27.1875 3.1875 C26.8575 3.5175 26.5275 3.8475 26.1875 4.1875 C28.4975 4.5175 30.8075 4.8475 33.1875 5.1875 C30.05025759 7.27899494 29.29975909 7.44288066 25.72265625 7.453125 C24.84504639 7.45699219 23.96743652 7.46085938 23.06323242 7.46484375 C21.67068237 7.45130859 21.67068237 7.45130859 20.25 7.4375 C18.83714722 7.43169922 18.83714722 7.43169922 17.39575195 7.42578125 C10.48229655 7.34023192 3.93891 6.75304435 -2.8125 5.1875 C-2.4825 4.5275 -2.1525 3.8675 -1.8125 3.1875 C-2.4725 2.5275 -3.1325 1.8675 -3.8125 1.1875 C-2.8125 0.1875 -2.8125 0.1875 0 0 Z " fill="#C5AF81" transform="translate(268.8125,207.8125)"/>
<path d="M0 0 C1.06927734 0.23976562 1.06927734 0.23976562 2.16015625 0.484375 C3.03994141 0.86335937 3.03994141 0.86335937 3.9375 1.25 C4.4325 2.735 4.4325 2.735 4.9375 4.25 C3.2875 4.91 1.6375 5.57 -0.0625 6.25 C0.123125 6.86875 0.30875 7.4875 0.5 8.125 C0.9375 10.25 0.9375 10.25 -0.0625 12.25 C-7.61281705 14.33159274 -14.41186647 12.53210249 -21.6875 10.3125 C-22.69167969 10.02181641 -23.69585937 9.73113281 -24.73046875 9.43164062 C-27.17961917 8.72022074 -29.62276189 7.99293258 -32.0625 7.25 C-32.0625 6.59 -32.0625 5.93 -32.0625 5.25 C-27.53530862 5.03441946 -24.29436549 5.67342266 -20.0625 7.25 C-14.93539881 9.14379413 -10.62401875 10.67780913 -5.0625 10.25 C-4.3810177 8.35820797 -4.3810177 8.35820797 -4.0625 6.25 C-4.7225 5.59 -5.3825 4.93 -6.0625 4.25 C-6.0625 2.93 -6.0625 1.61 -6.0625 0.25 C-3.5679485 -0.99727575 -2.66878506 -0.63934597 0 0 Z " fill="#ECC17A" transform="translate(264.0625,170.75)"/>
<path d="M0 0 C1.60379341 -0.05416188 3.20811406 -0.09286638 4.8125 -0.125 C5.70582031 -0.14820313 6.59914062 -0.17140625 7.51953125 -0.1953125 C10 0 10 0 13 2 C12.67 2.99 12.34 3.98 12 5 C12 5.99 12 6.98 12 8 C11.67 8.99 11.34 9.98 11 11 C9.56138706 10.91253716 8.12402492 10.80434652 6.6875 10.6875 C5.88699219 10.62949219 5.08648437 10.57148438 4.26171875 10.51171875 C1.60933741 9.91161175 0.63496121 9.14291033 -1 7 C-1 6.34 -1 5.68 -1 5 C-0.34 5 0.32 5 1 5 C0.67 3.35 0.34 1.7 0 0 Z " fill="#EDB963" transform="translate(248,171)"/>
<path d="M0 0 C0.639375 0.185625 1.27875 0.37125 1.9375 0.5625 C2.9584375 0.7790625 2.9584375 0.7790625 4 1 C4.33 0.67 4.66 0.34 5 0 C7 2 9 4 11 6 C10.34 6.66 9.68 7.32 9 8 C10.98 7.67 12.96 7.34 15 7 C15 7.66 15 8.32 15 9 C13.5437455 9.67119549 12.08492133 10.33681807 10.625 11 C9.40683594 11.556875 9.40683594 11.556875 8.1640625 12.125 C6 13 6 13 4 13 C4 12.34 4 11.68 4 11 C2.35 11.33 0.7 11.66 -1 12 C-1.89034986 9.50702038 -2.21044954 8.44895901 -1.0625 6 C-0.711875 5.34 -0.36125 4.68 0 4 C0 2.68 0 1.36 0 0 Z " fill="#C0A570" transform="translate(322,174)"/>
<path d="M0 0 C2.97 0 5.94 0 9 0 C9.08150744 2.06183633 9.1394194 4.12461349 9.1875 6.1875 C9.22230469 7.33605469 9.25710938 8.48460937 9.29296875 9.66796875 C8.97622579 13.27039199 8.08533398 15.09366839 6 18 C5.67 17.34 5.34 16.68 5 16 C4.34 16 3.68 16 3 16 C2.9175 16.78375 2.835 17.5675 2.75 18.375 C2 21 2 21 -0.046875 22.1640625 C-1.01367188 22.57785156 -1.01367188 22.57785156 -2 23 C-0.5317101 18.50140968 0.96649388 14.03405378 2.6875 9.625 C4.17022054 6.17241585 4.17022054 6.17241585 4 3 C2.68 3.33 1.36 3.66 0 4 C0 2.68 0 1.36 0 0 Z " fill="#AE8336" transform="translate(319,208)"/>
<path d="M0 0 C7.11120489 1.31117661 14.04699943 3.01720516 21 5 C21 5.66 21 6.32 21 7 C22.98 7.66 24.96 8.32 27 9 C23.90768389 11.06154407 23.39241113 11.22394445 19.9375 11.0625 C16.21441073 10.70056433 16.21441073 10.70056433 14 12 C13.34 11.34 12.68 10.68 12 10 C10.68 10 9.36 10 8 10 C8 8.02 8 6.04 8 4 C6.865625 3.71125 5.73125 3.4225 4.5625 3.125 C3.386875 2.75375 2.21125 2.3825 1 2 C0.67 1.34 0.34 0.68 0 0 Z " fill="#EBD9B9" transform="translate(208,181)"/>
<path d="M0 0 C0.33 0 0.66 0 1 0 C0.98839844 1.03640625 0.97679687 2.0728125 0.96484375 3.140625 C0.95546163 4.51041486 0.94636188 5.88020668 0.9375 7.25 C0.92912109 7.93191406 0.92074219 8.61382812 0.91210938 9.31640625 C0.89561703 12.71382842 1.02052562 15.74267823 2 19 C2.15176933 22.11127131 1.99640169 24.01079494 1 27 C-5.93 27 -12.86 27 -20 27 C-20 26.34 -20 25.68 -20 25 C-19.20335937 24.97421875 -18.40671875 24.9484375 -17.5859375 24.921875 C-8.90210275 24.62530021 -8.90210275 24.62530021 -2 20 C-1.58307147 16.41600593 -1.58307147 16.41600593 -2 13 C-1.67 12.34 -1.34 11.68 -1 11 C-0.7724985 9.12943209 -0.59037189 7.25314042 -0.4375 5.375 C-0.35371094 4.37210938 -0.26992187 3.36921875 -0.18359375 2.3359375 C-0.09271484 1.17964844 -0.09271484 1.17964844 0 0 Z " fill="#EFBC6D" transform="translate(190,240)"/>
<path d="M0 0 C0.66 0.33 1.32 0.66 2 1 C-0.74815157 8.83990448 -7.98550221 18.3737717 -15 23 C-17.203125 22.67578125 -17.203125 22.67578125 -19 22 C-19 20 -19 20 -17.609375 18.5625 C-16.99578125 18.046875 -16.3821875 17.53125 -15.75 17 C-15.14671875 16.484375 -14.5434375 15.96875 -13.921875 15.4375 C-12.0222161 14.01661692 -10.15071395 12.98970907 -8 12 C-8.103125 10.906875 -8.20625 9.81375 -8.3125 8.6875 C-8.209375 7.470625 -8.10625 6.25375 -8 5 C-5.60259082 3.04421883 -4.12413392 2 -1 2 C-0.67 1.34 -0.34 0.68 0 0 Z " fill="#A88342" transform="translate(344,226)"/>
<path d="M0 0 C1.84765625 0.01660156 1.84765625 0.01660156 4.0625 0.390625 C4.85914063 0.52339844 5.65578125 0.65617187 6.4765625 0.79296875 C7.72566406 1.01919922 7.72566406 1.01919922 9 1.25 C10.24910156 1.45302734 10.24910156 1.45302734 11.5234375 1.66015625 C17.73575098 2.73575098 17.73575098 2.73575098 20 5 C18.35 5 16.7 5 15 5 C15 5.99 15 6.98 15 8 C13.02 8 11.04 8 9 8 C9 8.66 9 9.32 9 10 C8.34 10 7.68 10 7 10 C7.33 10.66 7.66 11.32 8 12 C10.32156597 12.40729228 12.6568787 12.74438677 15 13 C15 13.33 15 13.66 15 14 C11.04 14 7.08 14 3 14 C3.99 11.36 4.98 8.72 6 6 C3.36 4.68 0.72 3.36 -2 2 C-1.34 1.34 -0.68 0.68 0 0 Z " fill="#EBE8E3" transform="translate(233,256)"/>
<path d="M0 0 C0 -0.66 0 -1.32 0 -2 C2.97 -1.67 5.94 -1.34 9 -1 C7 1 7 1 4.125 1.25 C-0.12271547 2.26945171 -0.77575316 4.39518616 -3 8 C-5.62113708 8 -7.50935112 7.68707555 -10 7 C-10 6.34 -10 5.68 -10 5 C-10.66 4.67 -11.32 4.34 -12 4 C-11.34 3.01 -10.68 2.02 -10 1 C-10.66 0.67 -11.32 0.34 -12 0 C-7.22144261 -2.04795317 -4.77855739 -2.04795317 0 0 Z " fill="#F7D37B" transform="translate(233,166)"/>
<path d="M0 0 C0.66 0.33 1.32 0.66 2 1 C0.61087093 2.7553265 -0.78661773 4.50403907 -2.1875 6.25 C-2.96480469 7.22453125 -3.74210937 8.1990625 -4.54296875 9.203125 C-6.86353982 11.84466536 -9.21912217 13.86722758 -12 16 C-12.86625 16.9075 -13.7325 17.815 -14.625 18.75 C-17.34539571 21.32721699 -17.45225587 21 -21 21 C-21.66 20.67 -22.32 20.34 -23 20 C-18.68689857 15.49661468 -13.99057471 11.94215107 -8.9375 8.28125 C-6.04501474 6.03495826 -3.53213341 3.64065341 -1 1 C-0.67 0.67 -0.34 0.34 0 0 Z " fill="#AC8C45" transform="translate(389,137)"/>
<path d="M0 0 C2.08326131 -0.02709444 4.16662441 -0.04643873 6.25 -0.0625 C7.41015625 -0.07410156 8.5703125 -0.08570312 9.765625 -0.09765625 C12.4682844 -0.01605421 14.42634385 0.34637304 17 1 C19.08234592 1.06743348 21.16668557 1.08514472 23.25 1.0625 C24.86648437 1.04896484 24.86648437 1.04896484 26.515625 1.03515625 C27.74539062 1.01775391 27.74539062 1.01775391 29 1 C28.360625 1.433125 27.72125 1.86625 27.0625 2.3125 C24.73253997 3.91239177 24.73253997 3.91239177 24 7 C22.125 7.875 22.125 7.875 20 8 C19.63003906 7.53207031 19.26007813 7.06414062 18.87890625 6.58203125 C15.943153 4.11013922 12.50264087 4.16378852 8.8125 3.8125 C8.06291016 3.73064453 7.31332031 3.64878906 6.54101562 3.56445312 C4.69524082 3.36459216 2.84774567 3.18073462 1 3 C0.67 2.01 0.34 1.02 0 0 Z " fill="#ECD080" transform="translate(167,90)"/>
<path d="M0 0 C1.41623216 -0.05447047 2.83308191 -0.09300508 4.25 -0.125 C5.03890625 -0.14820313 5.8278125 -0.17140625 6.640625 -0.1953125 C9.20731941 0.0171622 10.7916067 0.71345895 13 2 C13 2.66 13 3.32 13 4 C14.57974609 3.89558594 14.57974609 3.89558594 16.19140625 3.7890625 C22.35253531 3.79177845 28.06492003 5.67299867 33.9375 7.375 C35.65936523 7.85066406 35.65936523 7.85066406 37.41601562 8.3359375 C43.68429726 10.11733193 43.68429726 10.11733193 46 11 C46.495 11.99 46.495 11.99 47 13 C38.47315302 11.60523601 30.09746649 9.67955323 21.71801758 7.59594727 C19.54399371 7.05792006 17.36688136 6.53382132 15.18945312 6.00976562 C13.79406117 5.66490974 12.39887094 5.31923641 11.00390625 4.97265625 C9.12940796 4.51258179 9.12940796 4.51258179 7.21704102 4.04321289 C4.2016322 3.06538472 2.35597148 2.07615614 0 0 Z " fill="#F4E29D" transform="translate(185,164)"/>
<path d="M0 0 C0 0.33 0 0.66 0 1 C-1.24652344 1.17015625 -2.49304688 1.3403125 -3.77734375 1.515625 C-13.12317172 2.83267976 -22.30473828 4.33284077 -31.44116211 6.72949219 C-35.39035692 7.74031266 -38.92528045 8.18292085 -43 8 C-37.82997878 3.82421363 -33.9006547 1.90342131 -27.19824219 2.01635742 C-23.59515403 1.98954635 -20.06628199 1.48070103 -16.5 1 C-10.9456193 0.25132209 -5.60908869 -0.10106466 0 0 Z " fill="#E8CF96" transform="translate(79,184)"/>
<path d="M0 0 C0 0.33 0 0.66 0 1 C-3.84659254 1.90153946 -7.40403835 2.12143479 -11.35083008 2.11352539 C-13.24222466 2.11341209 -13.24222466 2.11341209 -15.17182922 2.11329651 C-16.53773031 2.10819069 -17.90363098 2.1029747 -19.26953125 2.09765625 C-20.67486012 2.0957897 -22.08018965 2.09436692 -23.48551941 2.09336853 C-27.17294125 2.089562 -30.8603233 2.07974774 -34.54772949 2.06866455 C-38.31501731 2.05841025 -42.0823116 2.05386232 -45.84960938 2.04882812 C-53.233091 2.0381237 -60.61653991 2.0210698 -68 2 C-67.67 2.66 -67.34 3.32 -67 4 C-65.10466658 4.46523063 -65.10466658 4.46523063 -62.9375 4.625 C-61.638125 4.74875 -60.33875 4.8725 -59 5 C-59 5.33 -59 5.66 -59 6 C-62.3 6 -65.6 6 -69 6 C-69.33 4.68 -69.66 3.36 -70 2 C-68.22083697 0.22083697 -65.60773343 0.8287582 -63.19848633 0.79467773 C-61.33568779 0.7647599 -61.33568779 0.7647599 -59.43525696 0.73423767 C-58.06751648 0.71724094 -56.69977454 0.70036259 -55.33203125 0.68359375 C-53.9353525 0.66301823 -52.5386799 0.64202159 -51.14201355 0.62062073 C-47.45361465 0.56529958 -43.76515814 0.51596567 -40.07666016 0.46777344 C-36.342067 0.41783926 -32.60756455 0.36188393 -28.87304688 0.30664062 C-23.39823183 0.22679835 -17.92339576 0.14903409 -12.44848633 0.07592773 C-11.34563797 0.06117905 -10.24278961 0.04643036 -9.10652161 0.03123474 C-6.07076956 0.00071156 -3.03588178 -0.00554751 0 0 Z " fill="#EBD8A5" transform="translate(235,88)"/>
<path d="M0 0 C0.66 0 1.32 0 2 0 C2.226875 1.2375 2.45375 2.475 2.6875 3.75 C3.74436356 7.96256885 5.21178496 9.70945137 9 12 C10.3303125 12.433125 10.3303125 12.433125 11.6875 12.875 C14 14 14 14 15.3125 17.125 C15.6528125 18.548125 15.6528125 18.548125 16 20 C13.8125 20.8125 13.8125 20.8125 11 21 C8.43588292 18.84381063 6.50450187 17.00900373 5 14 C4.34 13.319375 3.68 12.63875 3 11.9375 C0.34493729 8.03787664 0.20153256 4.62517225 0 0 Z " fill="#EEDFCC" transform="translate(219,242)"/>
<path d="M0 0 C3.63 0.66 7.26 1.32 11 2 C11 1.34 11 0.68 11 0 C12.98 0.66 14.96 1.32 17 2 C16.34 3.32 15.68 4.64 15 6 C12.35375716 5.85978195 9.70815422 5.71310224 7.0625 5.5625 C6.30775391 5.52318359 5.55300781 5.48386719 4.77539062 5.44335938 C-0.88671875 5.11328125 -0.88671875 5.11328125 -2 4 C-3.84891946 3.76636119 -5.70488031 3.58696365 -7.5625 3.4375 C-8.57441406 3.35371094 -9.58632812 3.26992188 -10.62890625 3.18359375 C-11.80259766 3.09271484 -11.80259766 3.09271484 -13 3 C-13 2.67 -13 2.34 -13 2 C-6.565 1.505 -6.565 1.505 0 1 C0 0.67 0 0.34 0 0 Z " fill="#EBDFCA" transform="translate(221,265)"/>
<path d="M0 0 C6.22987798 0.50512524 11.45474233 3.32604123 17 6 C17 6.66 17 7.32 17 8 C14.69 7.67 12.38 7.34 10 7 C9.67 7.66 9.34 8.32 9 9 C7.0625 9.5625 7.0625 9.5625 5 10 C4.01 10.495 4.01 10.495 3 11 C3 8.33333333 3 5.66666667 3 3 C1.68 2.67 0.36 2.34 -1 2 C-0.67 1.34 -0.34 0.68 0 0 Z " fill="#DAD0BF" transform="translate(301,95)"/>
<path d="M0 0 C3.375 -0.125 3.375 -0.125 7 0 C7.66 0.66 8.32 1.32 9 2 C8.67 2.99 8.34 3.98 8 5 C14.93 5.495 14.93 5.495 22 6 C22 6.33 22 6.66 22 7 C21.37955811 7.02505615 20.75911621 7.0501123 20.11987305 7.07592773 C17.30887603 7.19196721 14.49820759 7.31465759 11.6875 7.4375 C10.71103516 7.47681641 9.73457031 7.51613281 8.72851562 7.55664062 C7.79072266 7.59853516 6.85292969 7.64042969 5.88671875 7.68359375 C5.02264404 7.72025146 4.15856934 7.75690918 3.26831055 7.79467773 C0.8352174 7.92747354 0.8352174 7.92747354 -2 9 C-2.66 8.34 -3.32 7.68 -4 7 C-3.34 7 -2.68 7 -2 7 C-1.67 6.01 -1.34 5.02 -1 4 C1.0625 2.8125 1.0625 2.8125 3 2 C2.01 1.34 1.02 0.68 0 0 Z " fill="#F7D47E" transform="translate(221,93)"/>
<path d="M0 0 C-0.99 2.31 -1.98 4.62 -3 7 C-0.03 7.495 -0.03 7.495 3 8 C3 8.66 3 9.32 3 10 C-3.625 11.125 -3.625 11.125 -7 10 C-8.21380846 4.65924276 -8.21380846 4.65924276 -7.25 1.6875 C-5.03159256 -1.30735005 -3.36982921 -1.1232764 0 0 Z " fill="#C7B385" transform="translate(323,177)"/>
<path d="M0 0 C5.28 0 10.56 0 16 0 C16 0.99 16 1.98 16 3 C18.97 3 21.94 3 25 3 C22.60906848 5.39093152 21.88986054 5.25852924 18.625 5.4375 C14.91158706 5.76040547 12.72426403 6.27573597 10 9 C8 7 8 7 7.875 4.375 C7.91625 3.59125 7.9575 2.8075 8 2 C5.36 1.67 2.72 1.34 0 1 C0 0.67 0 0.34 0 0 Z " fill="#E9C993" transform="translate(256,89)"/>
<path d="M0 0 C2 3 2 3 1.64453125 5.0859375 C0.10024384 9.33454042 -1.44525172 13.22870492 -4 17 C-6.87136623 14.12863377 -6.8308736 10.88990718 -7 7 C-6.5625 4.5 -6.5625 4.5 -6 3 C-5.01 4.485 -5.01 4.485 -4 6 C-3.34 5.01 -2.68 4.02 -2 3 C-1.34 3 -0.68 3 0 3 C0 2.01 0 1.02 0 0 Z M-5 7 C-4 10 -4 10 -4 10 Z " fill="#9C7C3D" transform="translate(351,210)"/>
<path d="M0 0 C0.77601563 -0.01224609 1.55203125 -0.02449219 2.3515625 -0.03710938 C4.36076362 -0.04234167 6.36952914 0.06501265 8.375 0.1875 C9.035 0.8475 9.695 1.5075 10.375 2.1875 C2.89132216 6.67770671 -4.52781829 4.79629965 -12.625 3.1875 C-12.625 2.5275 -12.625 1.8675 -12.625 1.1875 C-8.37821709 -0.00205012 -4.38309468 0.00367709 0 0 Z " fill="#E5C881" transform="translate(169.625,157.8125)"/>
<path d="M0 0 C1.32 0.33 2.64 0.66 4 1 C4 1.66 4 2.32 4 3 C5.98 3 7.96 3 10 3 C10.33 4.32 10.66 5.64 11 7 C11.66 6.67 12.32 6.34 13 6 C12.67 5.34 12.34 4.68 12 4 C13.32 4 14.64 4 16 4 C17.8125 6.25 17.8125 6.25 19 9 C18.6875 11.3125 18.6875 11.3125 18 13 C15.2883701 11.80688284 12.99887956 10.31001222 10.625 8.5625 C8.29244641 6.84827419 6.27192489 5.64944532 3.625 4.375 C1 3 1 3 0 0 Z " fill="#ECE7E1" transform="translate(285,109)"/>
<path d="M0 0 C0.66 0 1.32 0 2 0 C2 1.65 2 3.3 2 5 C2.66 5 3.32 5 4 5 C4.66 3.35 5.32 1.7 6 0 C7.1832439 3.54973169 6.90010116 5.39959537 6 9 C4.4375 10.6875 4.4375 10.6875 3 12 C3 12.99 3 13.98 3 15 C2.34 15 1.68 15 1 15 C0.46605821 13.5882217 -0.05165104 12.17029756 -0.5625 10.75 C-0.85253906 9.96109375 -1.14257812 9.1721875 -1.44140625 8.359375 C-2.23294711 5.01608354 -1.50426687 3.00853375 0 0 Z " fill="#C0A567" transform="translate(325,145)"/>
<path d="M0 0 C0.99 0.495 0.99 0.495 2 1 C1.01 1.495 1.01 1.495 0 2 C0 1.34 0 0.68 0 0 Z M2 1 C2.33 1.66 2.66 2.32 3 3 C5.12576782 3.46651207 5.12576782 3.46651207 7.5625 3.625 C8.38878906 3.69976562 9.21507812 3.77453125 10.06640625 3.8515625 C10.70449219 3.90054688 11.34257812 3.94953125 12 4 C12 4.66 12 5.32 12 6 C3.13911833 6.29211698 -5.26047454 5.44796872 -14 4 C-14 3.34 -14 2.68 -14 2 C-12.92878906 2.01160156 -11.85757812 2.02320313 -10.75390625 2.03515625 C-9.35677257 2.04453299 -7.95963701 2.05363331 -6.5625 2.0625 C-5.85544922 2.07087891 -5.14839844 2.07925781 -4.41992188 2.08789062 C-2.61306441 2.09653588 -0.80612397 2.05220011 1 2 C1.33 1.67 1.66 1.34 2 1 Z " fill="#EADFCE" transform="translate(286,184)"/>
<path d="M0 0 C4.05855166 0.12884291 7.91975632 0.56110615 11.9375 1.125 C11.6075 2.115 11.2775 3.105 10.9375 4.125 C7.375 5.8125 7.375 5.8125 3.9375 7.125 C3.9375 6.465 3.9375 5.805 3.9375 5.125 C1.6275 5.785 -0.6825 6.445 -3.0625 7.125 C-3.44383299 5.1335944 -3.77575582 3.13220923 -4.0625 1.125 C-3.0625 0.125 -3.0625 0.125 0 0 Z " fill="#B28E46" transform="translate(333.0625,175.875)"/>
<path d="M0 0 C0.33 0.99 0.66 1.98 1 3 C2.32 2.67 3.64 2.34 5 2 C6.5625 3.75 6.5625 3.75 8 6 C7.66666667 7.33333333 7.33333333 8.66666667 7 10 C8.3916876 12.13344768 8.3916876 12.13344768 10 14 C10 14.66 10 15.32 10 16 C6.5520365 14.85067883 6.03232162 14.01470731 4 11.125 C2.15384047 8.51922275 0.32198068 6.19758885 -2 4 C-1.34 2.68 -0.68 1.36 0 0 Z " fill="#DED1BD" transform="translate(304,118)"/>
<path d="M0 0 C1.29550781 0.18691406 2.59101563 0.37382812 3.92578125 0.56640625 C5.28910422 0.7757702 6.65238498 0.98540911 8.015625 1.1953125 C9.39436221 1.39828696 10.77326755 1.60012288 12.15234375 1.80078125 C15.52526093 2.29610475 18.89601726 2.80303149 22.265625 3.3203125 C22.265625 3.6503125 22.265625 3.9803125 22.265625 4.3203125 C10.88368891 4.73392256 0.41129118 3.63772824 -10.734375 1.3203125 C-7.01412646 -1.13569574 -4.30675277 -0.64223506 0 0 Z " fill="#EDDFC4" transform="translate(281.734375,173.6796875)"/>
<path d="M0 0 C6.93 0.495 6.93 0.495 14 1 C14.33 1.99 14.66 2.98 15 4 C14.67 4.66 14.34 5.32 14 6 C13.01 6 12.02 6 11 6 C11 5.34 11 4.68 11 4 C8.08347826 3.83318891 8.08347826 3.83318891 5 4 C4.34 4.66 3.68 5.32 3 6 C0.875 5.625 0.875 5.625 -1 5 C-0.67 3.35 -0.34 1.7 0 0 Z " fill="#F4CB74" transform="translate(145,170)"/>
<path d="M0 0 C2 3 2 3 2 5 C2.66 5 3.32 5 4 5 C5.32 8.63 6.64 12.26 8 16 C6.02 16 4.04 16 2 16 C1.34 14.35 0.68 12.7 0 11 C0.66 11 1.32 11 2 11 C1.34 10.34 0.68 9.68 0 9 C-0.1953125 6.8359375 -0.1953125 6.8359375 -0.125 4.375 C-0.10695313 3.55773437 -0.08890625 2.74046875 -0.0703125 1.8984375 C-0.04710937 1.27195313 -0.02390625 0.64546875 0 0 Z " fill="#AA8634" transform="translate(344,128)"/>
<path d="M0 0 C6.02556155 5.28988252 9.13414555 15.33937805 11 23 C11 24.32 11 25.64 11 27 C10.34 27 9.68 27 9 27 C8.87882812 26.36191406 8.75765625 25.72382813 8.6328125 25.06640625 C8.46523438 24.24011719 8.29765625 23.41382813 8.125 22.5625 C7.88136719 21.32693359 7.88136719 21.32693359 7.6328125 20.06640625 C7.42398437 19.38449219 7.21515625 18.70257813 7 18 C6.34 17.67 5.68 17.34 5 17 C3.96484375 14.453125 3.96484375 14.453125 2.9375 11.25 C2.59589844 10.20328125 2.25429688 9.1565625 1.90234375 8.078125 C1.11465749 5.39112598 0.49465036 2.75372366 0 0 Z " fill="#AC8F4F" transform="translate(347,130)"/>
<path d="M0 0 C6.45846531 0.56244893 12.35063262 1.73728465 18.5625 3.5625 C19.38041016 3.79646484 20.19832031 4.03042969 21.04101562 4.27148438 C23.02920527 4.84119954 25.01488299 5.41966914 27 6 C26.34 6.66 25.68 7.32 25 8 C22.2217669 7.65345507 19.60292249 7.20921829 16.875 6.625 C16.12089844 6.47289062 15.36679688 6.32078125 14.58984375 6.1640625 C12.72446299 5.78626387 10.86193266 5.39444132 9 5 C9 4.34 9 3.68 9 3 C7.88625 2.87625 6.7725 2.7525 5.625 2.625 C2 2 2 2 0 0 Z " fill="#ECE8DF" transform="translate(227,187)"/>
<path d="M0 0 C9.11689851 0.72356337 18.01638277 2.34292907 27 4 C27 4.66 27 5.32 27 6 C27.99 6.33 28.98 6.66 30 7 C24.04133672 6.28523532 18.11542019 5.43476962 12.1875 4.5 C11.34251953 4.36980469 10.49753906 4.23960937 9.62695312 4.10546875 C8.81548828 3.97785156 8.00402344 3.85023438 7.16796875 3.71875 C6.43860107 3.60466797 5.7092334 3.49058594 4.95776367 3.37304688 C3 3 3 3 0 2 C0 1.34 0 0.68 0 0 Z " fill="#F0CE86" transform="translate(146,183)"/>
<path d="M0 0 C0.66 0.33 1.32 0.66 2 1 C0.62018438 2.82472349 -0.77950097 4.63443436 -2.1875 6.4375 C-2.96480469 7.44683594 -3.74210937 8.45617187 -4.54296875 9.49609375 C-7.22535995 12.22965934 -8.314044 12.57168105 -12 13 C-12.99 13.66 -13.98 14.32 -15 15 C-15.99 14.67 -16.98 14.34 -18 14 C-17.20335937 13.40832031 -16.40671875 12.81664062 -15.5859375 12.20703125 C-10.28580547 8.25864997 -5.01086486 4.31491141 0 0 Z " fill="#A58C5C" transform="translate(386,161)"/>
<path d="M0 0 C2.97 0.495 2.97 0.495 6 1 C5.01 2.485 5.01 2.485 4 4 C4 4.99 4 5.98 4 7 C3.6937566 8.33981486 3.36548445 9.67511887 3 11 C0.69 10.67 -1.62 10.34 -4 10 C-3.01 9.34 -2.02 8.68 -1 8 C-1.33 6.35 -1.66 4.7 -2 3 C-1.34 3 -0.68 3 0 3 C0 2.01 0 1.02 0 0 Z M-4 4 C-2 5 -2 5 -2 5 Z " fill="#C6B281" transform="translate(278,256)"/>
<path d="M0 0 C0.66 0.33 1.32 0.66 2 1 C2.99 0.67 3.98 0.34 5 0 C3.75928315 5.79001199 0.80261285 8.80580938 -4 12 C-4.66 12 -5.32 12 -6 12 C-5 9 -5 9 -4 7 C-4.33 6.01 -4.66 5.02 -5 4 C-3.35 2.68 -1.7 1.36 0 0 Z " fill="#A48141" transform="translate(366,155)"/>
<path d="M0 0 C3.96 0 7.92 0 12 0 C11.01 1.485 11.01 1.485 10 3 C9.01 3 8.02 3 7 3 C7 3.66 7 4.32 7 5 C4.6875 6.6875 4.6875 6.6875 2 8 C1.01 7.67 0.02 7.34 -1 7 C-0.67 4.69 -0.34 2.38 0 0 Z " fill="#AE8736" transform="translate(313,248)"/>
<path d="M0 0 C1.91635217 -0.05423638 3.83314925 -0.09289963 5.75 -0.125 C7.35101563 -0.15980469 7.35101563 -0.15980469 8.984375 -0.1953125 C11.92470106 -0.00487687 13.52361878 0.47329896 16 2 C15.67 2.99 15.34 3.98 15 5 C13.22925083 5.02705729 11.45838289 5.04642195 9.6875 5.0625 C8.70136719 5.07410156 7.71523437 5.08570313 6.69921875 5.09765625 C4 5 4 5 1 4 C0.3125 1.9375 0.3125 1.9375 0 0 Z " fill="#EDB961" transform="translate(172,185)"/>
<path d="M0 0 C1.32 0.66 2.64 1.32 4 2 C3.34 2.66 2.68 3.32 2 4 C3.98 3.67 5.96 3.34 8 3 C8 3.66 8 4.32 8 5 C6.5437455 5.67119549 5.08492133 6.33681807 3.625 7 C2.40683594 7.556875 2.40683594 7.556875 1.1640625 8.125 C-1 9 -1 9 -3 9 C-3 8.34 -3 7.68 -3 7 C-3.66 6.67 -4.32 6.34 -5 6 C-3.35 4.02 -1.7 2.04 0 0 Z " fill="#B9A066" transform="translate(329,178)"/>
<path d="M0 0 C1.32 0.33 2.64 0.66 4 1 C4.33 2.98 4.66 4.96 5 7 C1.68629 9.20914 0.6553979 9.22481553 -3.1875 9.125 C-4.08855469 9.10695313 -4.98960937 9.08890625 -5.91796875 9.0703125 C-6.60503906 9.04710937 -7.29210937 9.02390625 -8 9 C-4.67692308 5.06153846 -4.67692308 5.06153846 -1.25 4.75 C-0.5075 4.8325 0.235 4.915 1 5 C0.67 3.35 0.34 1.7 0 0 Z " fill="#D3C9B5" transform="translate(264,262)"/>
<path d="M0 0 C3.125 0.1875 3.125 0.1875 6.125 2.1875 C6.125 2.8475 6.125 3.5075 6.125 4.1875 C7.775 4.1875 9.425 4.1875 11.125 4.1875 C10.795 5.1775 10.465 6.1675 10.125 7.1875 C5.835 6.5275 1.545 5.8675 -2.875 5.1875 C-2.545 4.5275 -2.215 3.8675 -1.875 3.1875 C-2.535 2.5275 -3.195 1.8675 -3.875 1.1875 C-2.875 0.1875 -2.875 0.1875 0 0 Z " fill="#CFBFA1" transform="translate(268.875,207.8125)"/>
<path d="M0 0 C4.09501116 1.43474844 7.2603761 3.43465486 10.75 6 C11.71421875 6.70125 12.6784375 7.4025 13.671875 8.125 C16 10 16 10 17 12 C13.65750371 11.40312566 11.53563658 10.26396123 9 8 C9 7.34 9 6.68 9 6 C7.68 5.67 6.36 5.34 5 5 C5.33 5.99 5.66 6.98 6 8 C5.01 7.67 4.02 7.34 3 7 C2.67 6.01 2.34 5.02 2 4 C1.01 3.67 0.02 3.34 -1 3 C-0.67 2.01 -0.34 1.02 0 0 Z " fill="#C7B384" transform="translate(318,102)"/>
<path d="M0 0 C6.41157971 -0.10607393 12.67859027 -0.17063143 19 1 C19.33 1.66 19.66 2.32 20 3 C13.4 3 6.8 3 0 3 C0 2.01 0 1.02 0 0 Z " fill="#CAB68D" transform="translate(272,197)"/>
<path d="M0 0 C1.15518918 0.90484792 2.29885406 1.8244206 3.4375 2.75 C4.07558594 3.26046875 4.71367187 3.7709375 5.37109375 4.296875 C7.18810554 6.19667629 7.60423197 7.43586908 8 10 C8.66 10 9.32 10 10 10 C10 10.66 10 11.32 10 12 C7.36 12 4.72 12 2 12 C2.226875 11.2575 2.45375 10.515 2.6875 9.75 C3.30674044 6.95721633 3.30674044 6.95721633 1.5625 4.875 C1.046875 4.25625 0.53125 3.6375 0 3 C0 2.01 0 1.02 0 0 Z " fill="#B18939" transform="translate(334,116)"/>
<path d="M0 0 C1 2 1 2 1 6 C-4.94 6 -10.88 6 -17 6 C-17 5.34 -17 4.68 -17 4 C-15.78763672 3.94392578 -15.78763672 3.94392578 -14.55078125 3.88671875 C-13.48214844 3.82097656 -12.41351563 3.75523437 -11.3125 3.6875 C-10.25675781 3.62949219 -9.20101562 3.57148438 -8.11328125 3.51171875 C-4.76990036 2.96217936 -2.76473738 1.91325982 0 0 Z " fill="#EDBA60" transform="translate(187,261)"/>
<path d="M0 0 C2 3.75 2 3.75 2 6 C-1.33333333 7.66666667 -4.66666667 9.33333333 -8 11 C-8 7 -8 7 -6.1875 4.75 C-4 3 -4 3 -1 3 C-0.67 2.01 -0.34 1.02 0 0 Z " fill="#AD843C" transform="translate(318,232)"/>
<path d="M0 0 C-6.67414785 3.33707393 -13.71389759 4.57511728 -21 6 C-21.33 5.34 -21.66 4.68 -22 4 C-19.75023648 3.35334337 -17.50018033 2.70770477 -15.25 2.0625 C-13.99703125 1.70285156 -12.7440625 1.34320313 -11.453125 0.97265625 C-10.31359375 0.65167969 -9.1740625 0.33070313 -8 0 C-7.236875 -0.2165625 -6.47375 -0.433125 -5.6875 -0.65625 C-3.54963537 -1.09174094 -2.05443179 -0.66035307 0 0 Z " fill="#EDD89B" transform="translate(92,172)"/>
<path d="M0 0 C0.66 0.33 1.32 0.66 2 1 C1.21765206 4.10659192 0.42252417 7.20977255 -0.375 10.3125 C-0.59671875 11.19357422 -0.8184375 12.07464844 -1.046875 12.98242188 C-1.26601563 13.82998047 -1.48515625 14.67753906 -1.7109375 15.55078125 C-1.90993652 16.33106689 -2.10893555 17.11135254 -2.31396484 17.9152832 C-3 20 -3 20 -5 23 C-5.6875 19.6875 -5.6875 19.6875 -6 16 C-5.54625 15.566875 -5.0925 15.13375 -4.625 14.6875 C-2.23194008 12.20239932 -2.0066983 9.65126324 -1.3125 6.3125 C-1.06113281 5.13300781 -0.80976563 3.95351562 -0.55078125 2.73828125 C-0.36902344 1.83464844 -0.18726563 0.93101562 0 0 Z " fill="#957940" transform="translate(358,190)"/>
<path d="M0 0 C4.55737263 0.43820891 7.57653445 0.85041169 11 4 C11.66 3.67 12.32 3.34 13 3 C13.66 3.66 14.32 4.32 15 5 C14.625 7.625 14.625 7.625 14 10 C12.1875 9.8125 12.1875 9.8125 10 9 C9.566875 8.21625 9.13375 7.4325 8.6875 6.625 C6.33553447 2.96638695 4.04140305 2.44880487 0 1 C0 0.67 0 0.34 0 0 Z " fill="#F0DA96" transform="translate(177,93)"/>
<path d="M0 0 C0.33 0.66 0.66 1.32 1 2 C0.01 2.33 -0.98 2.66 -2 3 C-2.66 3.66 -3.32 4.32 -4 5 C-6.3828125 5.4140625 -6.3828125 5.4140625 -9.125 5.625 C-10.03507812 5.69976562 -10.94515625 5.77453125 -11.8828125 5.8515625 C-12.93082031 5.92503906 -12.93082031 5.92503906 -14 6 C-13.67 5.01 -13.34 4.02 -13 3 C-9.9375 1.8125 -9.9375 1.8125 -7 1 C-7 0.67 -7 0.34 -7 0 C-2.25 -1.125 -2.25 -1.125 0 0 Z " fill="#AA8436" transform="translate(334,195)"/>
<path d="M0 0 C0.66 0.33 1.32 0.66 2 1 C1.67 1.33 1.34 1.66 1 2 C3.31 2.33 5.62 2.66 8 3 C4.89914429 5.06723714 4.27068319 5.24497423 0.76953125 5.1953125 C-0.03291016 5.18886719 -0.83535156 5.18242187 -1.66210938 5.17578125 C-2.49548828 5.15902344 -3.32886719 5.14226562 -4.1875 5.125 C-5.03248047 5.11597656 -5.87746094 5.10695312 -6.74804688 5.09765625 C-8.83215243 5.07410703 -10.91611217 5.03823647 -13 5 C-13 4.67 -13 4.34 -13 4 C-11.84371094 3.81824219 -11.84371094 3.81824219 -10.6640625 3.6328125 C-9.66117187 3.46523437 -8.65828125 3.29765625 -7.625 3.125 C-6.12839844 2.88136719 -6.12839844 2.88136719 -4.6015625 2.6328125 C-1.8574885 2.2041198 -1.8574885 2.2041198 0 0 Z " fill="#B6A06F" transform="translate(294,210)"/>
<path d="M0 0 C7.42857143 -0.28571429 7.42857143 -0.28571429 11 2 C9.68 2 8.36 2 7 2 C8.11854586 5.72614153 8.11854586 5.72614153 11 8 C11 8.66 11 9.32 11 10 C9.02 9.34 7.04 8.68 5 8 C5.33 6.68 5.66 5.36 6 4 C5.01 4 4.02 4 3 4 C3 3.34 3 2.68 3 2 C2.01 1.34 1.02 0.68 0 0 Z " fill="#ECC37E" transform="translate(257,90)"/>
<path d="M0 0 C1.17949219 0.10183594 2.35898438 0.20367187 3.57421875 0.30859375 C4.47785156 0.39238281 5.38148438 0.47617188 6.3125 0.5625 C5.9825 1.2225 5.6525 1.8825 5.3125 2.5625 C2.99093403 2.96979228 0.6556213 3.30688677 -1.6875 3.5625 C-2.0175 4.5525 -2.3475 5.5425 -2.6875 6.5625 C-3.3475 6.5625 -4.0075 6.5625 -4.6875 6.5625 C-4.81125 5.634375 -4.81125 5.634375 -4.9375 4.6875 C-5.50008459 2.37812433 -5.50008459 2.37812433 -7.75 1.3125 C-8.389375 1.065 -9.02875 0.8175 -9.6875 0.5625 C-6.14075997 -0.61974668 -3.71227005 -0.33079634 0 0 Z " fill="#F3CD72" transform="translate(233.6875,91.4375)"/>
<path d="M0 0 C3.59391114 1.33488128 6.75490696 2.96022723 10 5 C9.67 5.99 9.34 6.98 9 8 C5.81390075 7.64598897 4.20933322 7.16972964 1.6875 5.125 C0 3 0 3 0 0 Z " fill="#E5DAC6" transform="translate(225,255)"/>
<path d="M0 0 C0.66 0.33 1.32 0.66 2 1 C-2.04941198 5.16510947 -6.16546738 8.77697825 -11 12 C-13.1875 11.625 -13.1875 11.625 -15 11 C-14.08476562 10.37351563 -13.16953125 9.74703125 -12.2265625 9.1015625 C-11.02596568 8.27615218 -9.82544901 7.45062527 -8.625 6.625 C-7.72007812 6.00625 -7.72007812 6.00625 -6.796875 5.375 C-4.36217249 3.6977605 -2.09532229 2.09532229 0 0 Z " fill="#B29962" transform="translate(310,239)"/>
<path d="M0 0 C0.66 0 1.32 0 2 0 C2 0.66 2 1.32 2 2 C3.19625 1.95875 4.3925 1.9175 5.625 1.875 C9.42329953 1.86148292 12.44975618 2.57990247 16 4 C16 4.33 16 4.66 16 5 C9.34949576 5.24991456 3.43013467 4.73955334 -3 3 C-2.01 2.67 -1.02 2.34 0 2 C0 1.34 0 0.68 0 0 Z " fill="#DACFC0" transform="translate(254,207)"/>
<path d="M0 0 C0.33 0.66 0.66 1.32 1 2 C1.66 2.33 2.32 2.66 3 3 C1.576875 3.37125 1.576875 3.37125 0.125 3.75 C-3.08693191 4.6857077 -3.08693191 4.6857077 -4.375 7.125 C-4.58125 7.74375 -4.7875 8.3625 -5 9 C-5 8.34 -5 7.68 -5 7 C-5.66 7 -6.32 7 -7 7 C-8.625 5 -8.625 5 -10 3 C-9 2 -9 2 -6.93359375 1.90234375 C-5.69802734 1.91974609 -5.69802734 1.91974609 -4.4375 1.9375 C-3.61121094 1.94652344 -2.78492187 1.95554688 -1.93359375 1.96484375 C-1.29550781 1.97644531 -0.65742187 1.98804688 0 2 C0 1.34 0 0.68 0 0 Z " fill="#FAE595" transform="translate(116,167)"/>
<path d="M0 0 C4.62 0.99 9.24 1.98 14 3 C13.67 3.99 13.34 4.98 13 6 C8.428721 5.45144652 4.32564205 4.58255197 0 3 C0 2.01 0 1.02 0 0 Z " fill="#F3D892" transform="translate(220,160)"/>
<path d="M0 0 C1.670625 0.2165625 1.670625 0.2165625 3.375 0.4375 C7.54143243 0.96574411 11.71462981 1.35606698 15.8984375 1.71875 C18 2 18 2 20 3 C13.00230217 6.09200602 7.13639206 3.99604349 0 2 C0 1.34 0 0.68 0 0 Z " fill="#EBD4AF" transform="translate(264,102)"/>
<path d="M0 0 C2.04296875 0.4609375 2.04296875 0.4609375 4.1875 1.375 C4.90292969 1.67148438 5.61835938 1.96796875 6.35546875 2.2734375 C7.16951172 2.63308594 7.16951172 2.63308594 8 3 C8 3.66 8 4.32 8 5 C5.69 4.67 3.38 4.34 1 4 C0.67 4.66 0.34 5.32 0 6 C-0.99 4.68 -1.98 3.36 -3 2 C-2.01 1.34 -1.02 0.68 0 0 Z " fill="#D1C4A5" transform="translate(310,98)"/>
<path d="M0 0 C6.65050424 -0.24991456 12.56986533 0.26044666 19 2 C17 4 17 4 14.25 4.25 C10.84445444 3.98803496 8.20099821 3.15780786 5 2 C3.33911955 1.63893903 1.67381019 1.29537827 0 1 C0 0.67 0 0.34 0 0 Z " fill="#F0EBE4" transform="translate(283,92)"/>
<path d="M0 0 C-0.33 0.66 -0.66 1.32 -1 2 C-3.70599842 2.47597366 -6.33595404 2.84093629 -9.0625 3.125 C-9.82111328 3.21136719 -10.57972656 3.29773438 -11.36132812 3.38671875 C-13.23996986 3.59939517 -15.11988636 3.80075459 -17 4 C-16.01 3.67 -15.02 3.34 -14 3 C-14 2.34 -14 1.68 -14 1 C-9.27685687 0.22887459 -4.78478822 -0.09764874 0 0 Z " fill="#DAD2BE" transform="translate(273,258)"/>
<path d="M0 0 C0 0.66 0 1.32 0 2 C0.66 2.33 1.32 2.66 2 3 C1.67 3.33 1.34 3.66 1 4 C-0.85772162 3.91015699 -2.71247985 3.75388139 -4.5625 3.5625 C-6.08037109 3.40974609 -6.08037109 3.40974609 -7.62890625 3.25390625 C-8.41136719 3.17011719 -9.19382813 3.08632812 -10 3 C-10 2.34 -10 1.68 -10 1 C-6.61981469 -0.04005702 -3.5219721 -0.08004482 0 0 Z " fill="#E5CE9C" transform="translate(167,158)"/>
<path d="M0 0 C1.65 0 3.3 0 5 0 C4.01 0.495 4.01 0.495 3 1 C3.33 1.99 3.66 2.98 4 4 C2.5625 6.125 2.5625 6.125 1 8 C1 8.33 1 8.66 1 9 C-0.65 9 -2.3 9 -4 9 C-3.67 8.01 -3.34 7.02 -3 6 C-2.34 5.67 -1.68 5.34 -1 5 C-0.34444881 2.47266765 -0.34444881 2.47266765 0 0 Z " fill="#ECB868" transform="translate(257,91)"/>
<path d="M0 0 C0.79921875 0.11085937 1.5984375 0.22171875 2.421875 0.3359375 C3.32679688 0.47902344 3.32679688 0.47902344 4.25 0.625 C1.78721199 3.08778801 -0.45676982 3.62271255 -3.75 4.625 C-3.75 3.965 -3.75 3.305 -3.75 2.625 C-5.4 3.285 -7.05 3.945 -8.75 4.625 C-8.75 3.635 -8.75 2.645 -8.75 1.625 C-5.5750906 -0.2828584 -3.64414789 -0.5359041 0 0 Z " fill="#D2C5AE" transform="translate(269.75,195.375)"/>
<path d="M0 0 C-1 3 -1 3 -3.3984375 4.203125 C-4.38070312 4.54859375 -5.36296875 4.8940625 -6.375 5.25 C-7.35210937 5.60578125 -8.32921875 5.9615625 -9.3359375 6.328125 C-12 7 -12 7 -15 6 C-13.3970947 5.18501438 -11.79262722 4.37310073 -10.1875 3.5625 C-9.29417969 3.11003906 -8.40085937 2.65757812 -7.48046875 2.19140625 C-4.94542384 0.97378625 -2.8412008 0 0 0 Z " fill="#EAD497" transform="translate(64,179)"/>
<path d="M0 0 C2.97 0.495 2.97 0.495 6 1 C6 1.66 6 2.32 6 3 C6.99 2.67 7.98 2.34 9 2 C9 2.66 9 3.32 9 4 C5.535 5.485 5.535 5.485 2 7 C0 2.25 0 2.25 0 0 Z " fill="#AB8637" transform="translate(344,168)"/>
<path d="M0 0 C0.80824219 0.11988281 1.61648437 0.23976562 2.44921875 0.36328125 C3.06410156 0.47027344 3.67898437 0.57726562 4.3125 0.6875 C1.55199662 3.44800338 -0.88805984 3.15424524 -4.6875 3.6875 C-5.6775 4.3475 -6.6675 5.0075 -7.6875 5.6875 C-7.6875 2.6875 -7.6875 2.6875 -6.48046875 0.98046875 C-4.08531415 -0.74675603 -2.87287835 -0.4579951 0 0 Z " fill="#EFCD82" transform="translate(237.6875,164.3125)"/>
<path d="M0 0 C1.890625 0.234375 1.890625 0.234375 4 1 C6.32767422 5.20371015 7.46328919 10.21267836 7 15 C4.08680402 13.54340201 3.98288741 11.6538411 2.9375 8.625 C2.59589844 7.64789063 2.25429688 6.67078125 1.90234375 5.6640625 C1.26340405 3.77766911 0.62981934 1.88945801 0 0 Z " fill="#C8B990" transform="translate(318,144)"/>
<path d="M0 0 C3.67056937 1.47797262 5.41085783 3.47615477 7.75 6.625 C8.67039062 7.85089844 8.67039062 7.85089844 9.609375 9.1015625 C10.29773438 10.04128906 10.29773438 10.04128906 11 11 C10.34 12.32 9.68 13.64 9 15 C8.34 12.69 7.68 10.38 7 8 C6.34 8 5.68 8 5 8 C3.1402289 5.40759181 1.42794577 2.85589153 0 0 Z " fill="#BC9D4F" transform="translate(337,118)"/>
<path d="M0 0 C5.28 0.66 10.56 1.32 16 2 C16 2.33 16 2.66 16 3 C10.72 3 5.44 3 0 3 C0 2.01 0 1.02 0 0 Z " fill="#EEE9E2" transform="translate(288,175)"/>
<path d="M0 0 C13.10679612 1.10679612 13.10679612 1.10679612 17 5 C12.71 4.34 8.42 3.68 4 3 C4 2.34 4 1.68 4 1 C2.68 0.67 1.36 0.34 0 0 Z " fill="#EDD698" transform="translate(170,161)"/>
<path d="M0 0 C0.66 0.33 1.32 0.66 2 1 C-0.97 4.3 -3.94 7.6 -7 11 C-7.99 10.34 -8.98 9.68 -10 9 C-6.7 6.03 -3.4 3.06 0 0 Z " fill="#A18F61" transform="translate(389,137)"/>
<path d="M0 0 C2.0625 0.6875 2.0625 0.6875 4 2 C4.75 4.125 4.75 4.125 5 6 C3.68 6.33 2.36 6.66 1 7 C-2 3.25 -2 3.25 -2 1 C-1.34 0.67 -0.68 0.34 0 0 Z " fill="#D1C6AB" transform="translate(307,120)"/>
<path d="M0 0 C1.19105377 3.5731613 1.0704232 5.40643641 0 9 C-2.5625 10.375 -2.5625 10.375 -5 11 C-4.67 10.01 -4.34 9.02 -4 8 C-4.39397335 5.36195411 -4.39397335 5.36195411 -5 3 C-4.67 3.66 -4.34 4.32 -4 5 C-3.34 5 -2.68 5 -2 5 C-1.34 3.35 -0.68 1.7 0 0 Z " fill="#BB9B60" transform="translate(331,145)"/>
<path d="M0 0 C1.18613892 0.07069702 1.18613892 0.07069702 2.39624023 0.14282227 C3.67724609 0.21533203 3.67724609 0.21533203 4.98413086 0.28930664 C5.88196289 0.34538086 6.77979492 0.40145508 7.70483398 0.45922852 C8.6065332 0.51143555 9.50823242 0.56364258 10.43725586 0.61743164 C12.67259948 0.74753101 14.90754288 0.88250788 17.14233398 1.02172852 C17.14233398 1.35172852 17.14233398 1.68172852 17.14233398 2.02172852 C16.15491211 2.08231445 15.16749023 2.14290039 14.15014648 2.20532227 C12.86881836 2.28911133 11.58749023 2.37290039 10.26733398 2.45922852 C8.99116211 2.54043945 7.71499023 2.62165039 6.40014648 2.70532227 C3.25933246 2.81378879 3.25933246 2.81378879 1.14233398 4.02172852 C-0.17766602 3.03172852 -1.49766602 2.04172852 -2.85766602 1.02172852 C-1.85766602 0.02172852 -1.85766602 0.02172852 0 0 Z " fill="#F3CD83" transform="translate(170.857666015625,265.978271484375)"/>
<path d="M0 0 C-1.55575978 0.84584998 -3.1199612 1.67618399 -4.6875 2.5 C-5.99267578 3.19609375 -5.99267578 3.19609375 -7.32421875 3.90625 C-10.11788829 5.04818792 -12.01629113 5.21504208 -15 5 C-13.54341873 2.08683746 -11.63839986 1.90792226 -8.625 0.8125 C-7.15933594 0.26529297 -7.15933594 0.26529297 -5.6640625 -0.29296875 C-3 -1 -3 -1 0 0 Z " fill="#BCAB83" transform="translate(296,252)"/>
<path d="M0 0 C0.99 0.33 1.98 0.66 3 1 C0.69 3.31 -1.62 5.62 -4 8 C-4.66 7.34 -5.32 6.68 -6 6 C-6.99 6 -7.98 6 -9 6 C-8 4 -8 4 -6.15234375 3.3671875 C-5.42144531 3.20476562 -4.69054687 3.04234375 -3.9375 2.875 C-2.83728516 2.62363281 -2.83728516 2.62363281 -1.71484375 2.3671875 C-1.14894531 2.24601563 -0.58304687 2.12484375 0 2 C0 1.34 0 0.68 0 0 Z " fill="#A07237" transform="translate(372,176)"/>
<path d="M0 0 C3.3 0.33 6.6 0.66 10 1 C10 1.99 10 2.98 10 4 C7.25 4.25 7.25 4.25 4 4 C1.625 2 1.625 2 0 0 Z " fill="#E2E2DB" transform="translate(238,260)"/>
<path d="M0 0 C0.66 0.33 1.32 0.66 2 1 C1.34 2.65 0.68 4.3 0 6 C-0.66 6 -1.32 6 -2 6 C-2.33 6.99 -2.66 7.98 -3 9 C-3.33 9 -3.66 9 -4 9 C-4.25 6.1875 -4.25 6.1875 -4 3 C-2 1.125 -2 1.125 0 0 Z " fill="#AA8133" transform="translate(340,228)"/>
<path d="M0 0 C0 0.33 0 0.66 0 1 C-0.93972656 1.09087891 -0.93972656 1.09087891 -1.8984375 1.18359375 C-2.71570313 1.26738281 -3.53296875 1.35117188 -4.375 1.4375 C-5.18710938 1.51871094 -5.99921875 1.59992188 -6.8359375 1.68359375 C-9.04272805 1.89090114 -9.04272805 1.89090114 -11 3 C-13.04055005 3.07065617 -15.08334257 3.08421976 -17.125 3.0625 C-18.22070312 3.05347656 -19.31640625 3.04445312 -20.4453125 3.03515625 C-21.70988281 3.01775391 -21.70988281 3.01775391 -23 3 C-23 2.67 -23 2.34 -23 2 C-15.2472493 0.48462814 -7.89957062 -0.27990605 0 0 Z " fill="#EFDDA3" transform="translate(116,168)"/>
<path d="M0 0 C0.33 0 0.66 0 1 0 C1.33 3.96 1.66 7.92 2 12 C1.01 11.67 0.02 11.34 -1 11 C-1.33 8.36 -1.66 5.72 -2 3 C-1.34 3 -0.68 3 0 3 C0 2.01 0 1.02 0 0 Z " fill="#E9D2AF" transform="translate(218,241)"/>
<path d="M0 0 C1.5 1.375 1.5 1.375 3 3 C3 3.66 3 4.32 3 5 C3.66 5.33 4.32 5.66 5 6 C4.34 7.98 3.68 9.96 3 12 C2.34 12 1.68 12 1 12 C0.45533613 7.915021 0 4.1274515 0 0 Z " fill="#A68032" transform="translate(344,213)"/>
<path d="M0 0 C1.84228293 0.20113532 3.67580379 0.48574321 5.5 0.8125 C6.5003125 0.98394531 7.500625 1.15539062 8.53125 1.33203125 C9.75328125 1.66267578 9.75328125 1.66267578 11 2 C11.33 2.66 11.66 3.32 12 4 C10.39504433 3.88557539 8.79101881 3.75805306 7.1875 3.625 C6.29417969 3.55539063 5.40085937 3.48578125 4.48046875 3.4140625 C2 3 2 3 -1 1 C-0.67 0.67 -0.34 0.34 0 0 Z " fill="#DFD4C9" transform="translate(254,193)"/>
<path d="M0 0 C1.32 0.66 2.64 1.32 4 2 C3.01 2.99 2.02 3.98 1 5 C0.01 4.01 -0.98 3.02 -2 2 C-1.34 1.34 -0.68 0.68 0 0 Z M-3 3 C-2.67 3.66 -2.34 4.32 -2 5 C-2.66 5.66 -3.32 6.32 -4 7 C-4 4 -4 4 -3 3 Z M-6 7 C-4 8 -4 8 -4 8 Z " fill="#AE8A3B" transform="translate(308,243)"/>
<path d="M0 0 C0.33 0 0.66 0 1 0 C0.14285714 8.57142857 0.14285714 8.57142857 -2 12 C-2.66 12 -3.32 12 -4 12 C-3.52494322 10.18641846 -3.04483958 8.37415821 -2.5625 6.5625 C-2.29566406 5.55316406 -2.02882813 4.54382813 -1.75390625 3.50390625 C-1 1 -1 1 0 0 Z " fill="#A78C48" transform="translate(325,210)"/>
<path d="M0 0 C0.99 0.33 1.98 0.66 3 1 C2.67 3.97 2.34 6.94 2 10 C-1 7 -1 7 -1.25 4.4375 C-1 2 -1 2 0 0 Z " fill="#EBD6B5" transform="translate(217,200)"/>
<path d="M0 0 C1.91015625 0.13671875 1.91015625 0.13671875 4.0625 0.6875 C5.13177734 0.94080078 5.13177734 0.94080078 6.22265625 1.19921875 C6.80917969 1.46347656 7.39570313 1.72773438 8 2 C8.33 2.99 8.66 3.98 9 5 C6.04725901 5 4.50941597 4.56108169 1.8125 3.5 C1.09707031 3.2215625 0.38164062 2.943125 -0.35546875 2.65625 C-0.89816406 2.4396875 -1.44085938 2.223125 -2 2 C-1.34 1.34 -0.68 0.68 0 0 Z " fill="#EDC98E" transform="translate(260,170)"/>
<path d="M0 0 C0 0.99 0 1.98 0 3 C-1.1446875 3.185625 -1.1446875 3.185625 -2.3125 3.375 C-5.20267136 3.88102792 -5.20267136 3.88102792 -8 6 C-8.99 5.67 -9.98 5.34 -11 5 C-9.92570402 4.15504811 -8.84010798 3.32445142 -7.75 2.5 C-7.14671875 2.0359375 -6.5434375 1.571875 -5.921875 1.09375 C-4 0 -4 0 0 0 Z " fill="#AD8646" transform="translate(379,170)"/>
<path d="M0 0 C1.32 0 2.64 0 4 0 C5.75 2.5 5.75 2.5 7 5 C5.68 5.33 4.36 5.66 3 6 C0 1.125 0 1.125 0 0 Z " fill="#DED8CC" transform="translate(297,113)"/>
<path d="M0 0 C1.32 0.33 2.64 0.66 4 1 C4.33 2.98 4.66 4.96 5 7 C4.01 7 3.02 7 2 7 C0.5393715 4.35261084 0 3.10551666 0 0 Z " fill="#D4C4A7" transform="translate(264,262)"/>
<path d="M0 0 C0.33 0.66 0.66 1.32 1 2 C2.65 1.67 4.3 1.34 6 1 C6.33 1.99 6.66 2.98 7 4 C3.7 4.33 0.4 4.66 -3 5 C-2.01 3.35 -1.02 1.7 0 0 Z " fill="#CCC1A1" transform="translate(312,185)"/>
<path d="M0 0 C0.66 0.33 1.32 0.66 2 1 C2 2.32 2 3.64 2 5 C2.66 5 3.32 5 4 5 C4.66 6.98 5.32 8.96 6 11 C5.34 11 4.68 11 4 11 C3.1361871 9.54735962 2.28419546 8.0876837 1.4375 6.625 C0.72400391 5.40683594 0.72400391 5.40683594 -0.00390625 4.1640625 C-0.33261719 3.44992188 -0.66132813 2.73578125 -1 2 C-0.67 1.34 -0.34 0.68 0 0 Z " fill="#D4C7A4" transform="translate(314,133)"/>
<path d="M0 0 C0 0.99 0 1.98 0 3 C-3.63 3.33 -7.26 3.66 -11 4 C-7.61125486 1.74083657 -4.15175481 0 0 0 Z " fill="#C8B187" transform="translate(290,265)"/>
<path d="M0 0 C1.65 0.33 3.3 0.66 5 1 C4.2884375 1.6496875 4.2884375 1.6496875 3.5625 2.3125 C1.76313043 4.02309613 1.76313043 4.02309613 1 7 C0.01 6.01 -0.98 5.02 -2 4 C-1.34 3.67 -0.68 3.34 0 3 C0 2.01 0 1.02 0 0 Z M-4 4 C-2 5 -2 5 -2 5 Z " fill="#CCB48B" transform="translate(278,256)"/>
<path d="M0 0 C-3.6441774 2.4294516 -5.71241272 2.16179575 -10 2 C-9.67 1.01 -9.34 0.02 -9 -1 C-5.79937313 -2.60031344 -3.27728194 -1.03173691 0 0 Z " fill="#E7DCC7" transform="translate(235,190)"/>
<path d="M0 0 C1.67542976 0.28604898 3.34385343 0.61781233 5 1 C5 1.99 5 2.98 5 4 C3.02 4.66 1.04 5.32 -1 6 C-1.042721 4.33388095 -1.04063832 2.66617115 -1 1 C-0.67 0.67 -0.34 0.34 0 0 Z " fill="#E6D5B8" transform="translate(223,187)"/>
<path d="M0 0 C0.99 0 1.98 0 3 0 C3.66 1.65 4.32 3.3 5 5 C1 5 1 5 -1 4 C-1 1 -1 1 0 0 Z " fill="#A7712B" transform="translate(356,185)"/>
<path d="M0 0 C4.46839215 -0.21278058 7.82262526 0.40861915 12 2 C12 2.33 12 2.66 12 3 C3.42857143 3.14285714 3.42857143 3.14285714 0 2 C0 1.34 0 0.68 0 0 Z " fill="#F0CF82" transform="translate(232,176)"/>
<path d="M0 0 C3.63 0.33 7.26 0.66 11 1 C8 3 8 3 4.375 2.75 C2.704375 2.37875 2.704375 2.37875 1 2 C0.67 1.34 0.34 0.68 0 0 Z " fill="#EADCCA" transform="translate(220,200)"/>
<path d="M0 0 C3.63 0.66 7.26 1.32 11 2 C11 2.33 11 2.66 11 3 C9.54176788 3.0270043 8.08339325 3.04639787 6.625 3.0625 C5.81289062 3.07410156 5.00078125 3.08570313 4.1640625 3.09765625 C2 3 2 3 0 2 C0 1.34 0 0.68 0 0 Z " fill="#EFC689" transform="translate(244,166)"/>
<path d="M0 0 C0.80050781 0.12761719 1.60101563 0.25523437 2.42578125 0.38671875 C3.23402344 0.50660156 4.04226563 0.62648438 4.875 0.75 C5.48988281 0.85699219 6.10476563 0.96398437 6.73828125 1.07421875 C6.73828125 1.40421875 6.73828125 1.73421875 6.73828125 2.07421875 C0.79828125 2.56921875 0.79828125 2.56921875 -5.26171875 3.07421875 C-2.26171875 0.07421875 -2.26171875 0.07421875 0 0 Z " fill="#C7BAA3" transform="translate(271.26171875,267.92578125)"/>
<path d="M0 0 C0.66 0 1.32 0 2 0 C1.75 2.875 1.75 2.875 1 6 C-1.0625 7.375 -1.0625 7.375 -3 8 C-1.125 2.25 -1.125 2.25 0 0 Z " fill="#A18845" transform="translate(320,223)"/>
<path d="M0 0 C2.31 0.33 4.62 0.66 7 1 C4.64046906 3.35953094 3.22104383 3.49141413 0 4 C0 2.68 0 1.36 0 0 Z " fill="#A97C3B" transform="translate(319,208)"/>
<path d="M0 0 C1.32 0.33 2.64 0.66 4 1 C3.67 1.66 3.34 2.32 3 3 C3.66 3.33 4.32 3.66 5 4 C3.35 4.33 1.7 4.66 0 5 C0 3.35 0 1.7 0 0 Z " fill="#E2E0D8" transform="translate(245,201)"/>
<path d="M0 0 C0.91007812 0.00902344 1.82015625 0.01804687 2.7578125 0.02734375 C3.45648438 0.03894531 4.15515625 0.05054687 4.875 0.0625 C2.0663711 2.8711289 -0.23634294 2.78961179 -4.125 3.0625 C-5.115 2.4025 -6.105 1.7425 -7.125 1.0625 C-4.60024538 -0.19987731 -2.81299534 -0.03606404 0 0 Z " fill="#E7CDA1" transform="translate(276.125,91.9375)"/>
<path d="M0 0 C0.103125 0.598125 0.20625 1.19625 0.3125 1.8125 C1.08876455 4.28243264 2.07088921 5.32251235 4 7 C3.67 7.66 3.34 8.32 3 9 C1.35 7.35 -0.3 5.7 -2 4 C-1.34 2.68 -0.68 1.36 0 0 Z " fill="#E0D7CA" transform="translate(304,118)"/>
</svg>
